<svg width="24" height="24" viewBox="0 0 24 24" fill="currentColor" xmlns="http://www.w3.org/2000/svg">
<path d="M2.16003 11.9933C2.16003 6.56251 6.56257 2.15997 11.9934 2.15997C17.4242 2.15997 21.8267 6.56251 21.8267 11.9933C21.8267 17.4241 17.4242 21.8266 11.9934 21.8266C6.56257 21.8266 2.16003 17.4241 2.16003 11.9933ZM11.9934 3.15997C7.11485 3.15997 3.16003 7.11479 3.16003 11.9933C3.16003 16.8718 7.11485 20.8266 11.9934 20.8266C16.8719 20.8266 20.8267 16.8718 20.8267 11.9933C20.8267 7.11479 16.8719 3.15997 11.9934 3.15997ZM11.4934 11.9933V5.99331H12.4934V11.7862L16.3469 15.6398L15.6398 16.3469L11.6398 12.3469C11.546 12.2531 11.4934 12.1259 11.4934 11.9933Z"/>
</svg>
