<svg width="24" height="24" viewBox="0 0 24 24" fill="currentColor" xmlns="http://www.w3.org/2000/svg">
<path d="M13 15.5858L13 4C13 3.44771 12.5523 3 12 3C11.4477 3 11 3.44771 11 4L11 15.5858L5.70711 10.2929C5.31658 9.90237 4.68342 9.90237 4.29289 10.2929C3.90237 10.6834 3.90237 11.3166 4.29289 11.7071L11.2924 18.7066L11.2974 18.6974L11.3 18.7C11.4989 18.8989 11.7473 18.9989 11.996 19C12.2524 19.0011 12.5089 18.9042 12.705 18.7092L12.68 18.7195C12.6831 18.7166 12.6862 18.7136 12.6892 18.7106C12.6928 18.7071 12.6964 18.7036 12.7 18.7L12.7089 18.6911L12.7075 18.7067L19.7071 11.7071C20.0976 11.3166 20.0976 10.6834 19.7071 10.2929C19.3166 9.90237 18.6834 9.90237 18.2929 10.2929L13 15.5858ZM13 15.5858L12.9985 15.6015L12.9828 15.6172L13 15.5858Z"/>
<path d="M5 19C4.44772 19 4 19.4477 4 20C4 20.5523 4.44772 21 5 21H19C19.5523 21 20 20.5523 20 20C20 19.4477 19.5523 19 19 19H5Z"/>
</svg>
