<svg width="24" height="24" viewBox="0 0 24 24" fill="currentColor" xmlns="http://www.w3.org/2000/svg">
<path d="M2 6.2C2 4.92111 3.08945 4 4.28571 4H19.7143C20.9105 4 22 4.92111 22 6.2V18.2C22 19.4789 20.9105 20.4 19.7143 20.4H4.28571C3.08945 20.4 2 19.4789 2 18.2V6.2ZM4.0589 6.08253C4.01203 6.12627 4 6.16802 4 6.2V8L12 12.2667L20 8V6.2C20 6.16802 19.988 6.12627 19.9411 6.08253C19.8931 6.03768 19.8153 6 19.7143 6H4.28571C4.18471 6 4.10694 6.03768 4.0589 6.08253ZM20 10.2667L12 14.5333L4 10.2667V18.2C4 18.232 4.01203 18.2737 4.0589 18.3175C4.10694 18.3623 4.18472 18.4 4.28571 18.4H19.7143C19.8153 18.4 19.8931 18.3623 19.9411 18.3175C19.988 18.2737 20 18.232 20 18.2V10.2667Z"/>
</svg>
