<svg width="24" height="24" viewBox="0 0 24 24" fill="currentColor" xmlns="http://www.w3.org/2000/svg">
<path fill-rule="evenodd" clip-rule="evenodd" d="M4.601 12.0014C4.66428 12.1281 4.74514 12.2823 4.84418 12.4571C5.14043 12.9799 5.59312 13.6757 6.21633 14.3682C7.46135 15.7515 9.33607 17.0729 11.9998 17.0729C14.6635 17.0729 16.5383 15.7515 17.7833 14.3682C18.4065 13.6757 18.8592 12.9799 19.1555 12.4571C19.2545 12.2823 19.3354 12.1281 19.3987 12.0014C19.3354 11.8747 19.2545 11.7206 19.1555 11.5458C18.8592 11.023 18.4065 10.3271 17.7833 9.63467C16.5383 8.25131 14.6635 6.92999 11.9998 6.92999C9.33607 6.92999 7.46135 8.25131 6.21633 9.63467C5.59312 10.3271 5.14043 11.023 4.84418 11.5458C4.74514 11.7206 4.66428 11.8747 4.601 12.0014ZM20.4998 12.0014C21.4283 11.63 21.4281 11.6296 21.428 11.6292L21.4276 11.6282L21.4266 11.6258L21.424 11.6193L21.4159 11.5998C21.4093 11.584 21.4002 11.5624 21.3886 11.5356C21.3654 11.482 21.332 11.4072 21.2881 11.3141C21.2005 11.1282 21.0705 10.8685 20.8955 10.5597C20.5467 9.94415 20.0128 9.12214 19.2699 8.29674C17.7828 6.64439 15.4075 4.92999 11.9998 4.92999C8.59212 4.92999 6.21685 6.64439 4.72974 8.29674C3.98688 9.12214 3.45297 9.94415 3.10413 10.5598C2.92915 10.8685 2.79918 11.1282 2.71151 11.3141C2.66764 11.4072 2.63426 11.482 2.61103 11.5356C2.59941 11.5624 2.59032 11.584 2.58373 11.5998L2.57569 11.6193L2.57306 11.6258L2.57209 11.6282L2.57169 11.6292C2.57152 11.6296 2.57135 11.63 3.49983 12.0014L2.57169 11.6292C2.47633 11.8676 2.47599 12.1344 2.57135 12.3728L3.49983 12.0014C2.57135 12.3728 2.57118 12.3724 2.57135 12.3728L2.57209 12.3747L2.57306 12.3771L2.57569 12.3835L2.58373 12.403C2.59032 12.4189 2.59941 12.4404 2.61103 12.4672C2.63426 12.5208 2.66764 12.5957 2.71151 12.6887C2.79918 12.8747 2.92915 13.1343 3.10413 13.4431C3.45297 14.0587 3.98688 14.8807 4.72974 15.7061C6.21685 17.3585 8.59212 19.0729 11.9998 19.0729C15.4075 19.0729 17.7828 17.3585 19.2699 15.7061C20.0128 14.8807 20.5467 14.0587 20.8955 13.4431C21.0705 13.1343 21.2005 12.8747 21.2881 12.6887C21.332 12.5957 21.3654 12.5208 21.3886 12.4672C21.4002 12.4404 21.4093 12.4189 21.4159 12.403L21.424 12.3835L21.4266 12.3771L21.4276 12.3747L21.428 12.3737C21.4281 12.3732 21.4283 12.3728 20.4998 12.0014ZM20.4998 12.0014L21.428 12.3737C21.5233 12.1353 21.5233 11.8676 21.428 11.6292L20.4998 12.0014ZM4.42749 12.3748C4.42733 12.3752 4.42736 12.3752 4.42749 12.3748ZM8.57126 12.0014C8.57126 10.1079 10.1063 8.57285 11.9998 8.57285C13.8934 8.57285 15.4284 10.1079 15.4284 12.0014C15.4284 13.895 13.8934 15.43 11.9998 15.43C10.1063 15.43 8.57126 13.895 8.57126 12.0014ZM11.9998 10.5728C11.2109 10.5728 10.5713 11.2124 10.5713 12.0014C10.5713 12.7904 11.2109 13.43 11.9998 13.43C12.7888 13.43 13.4284 12.7904 13.4284 12.0014C13.4284 11.2124 12.7888 10.5728 11.9998 10.5728ZM4.42753 11.6281C4.42741 11.6278 4.42737 11.6277 4.42753 11.6281Z"/>
</svg>
