<svg width="24" height="24" viewBox="0 0 24 24" fill="currentColor" xmlns="http://www.w3.org/2000/svg">
<path d="M12.4047 12.048H17.3356H12.9023H2V12.9528H12.9023H17.3356H12.4047V12.048Z"/>
<path fill-rule="evenodd" clip-rule="evenodd" d="M15.119 14.7623C14.0247 14.7623 13.1119 13.9852 12.9023 12.9528C12.8727 12.8066 12.8571 12.6553 12.8571 12.5004C12.8571 12.3455 12.8727 12.1942 12.9023 12.048C13.1119 11.0156 14.0247 10.2385 15.119 10.2385C16.2133 10.2385 17.1261 11.0156 17.3356 12.048C17.3653 12.1942 17.3809 12.3455 17.3809 12.5004C17.3809 12.6553 17.3653 12.8066 17.3356 12.9528C17.1261 13.9852 16.2133 14.7623 15.119 14.7623ZM15.119 15.6671C13.3701 15.6671 11.9523 14.2493 11.9523 12.5004C11.9523 10.7515 13.3701 9.33377 15.119 9.33377C16.8679 9.33377 18.2856 10.7515 18.2856 12.5004C18.2856 14.2493 16.8679 15.6671 15.119 15.6671Z"/>
<path d="M17.3809 12.048H20.9999V12.9528H17.3809V12.048Z"/>
<path d="M10.5952 4.80998H5.66428H10.0976H20.9999V5.71473H10.0976H5.66428H10.5952V4.80998Z"/>
<path fill-rule="evenodd" clip-rule="evenodd" d="M7.88093 7.52425C8.97521 7.52425 9.888 6.74717 10.0976 5.71473C10.1272 5.56857 10.1428 5.41728 10.1428 5.26236C10.1428 5.10743 10.1272 4.95614 10.0976 4.80998C9.888 3.77754 8.97521 3.00046 7.88093 3.00046C6.78664 3.00046 5.87385 3.77754 5.66428 4.80998C5.63461 4.95614 5.61903 5.10743 5.61903 5.26236C5.61903 5.41728 5.63461 5.56857 5.66428 5.71473C5.87385 6.74717 6.78664 7.52425 7.88093 7.52425ZM7.88093 8.42901C9.62982 8.42901 11.0476 7.01125 11.0476 5.26236C11.0476 3.51346 9.62982 2.0957 7.88093 2.0957C6.13203 2.0957 4.71427 3.51346 4.71427 5.26236C4.71427 7.01125 6.13203 8.42901 7.88093 8.42901Z"/>
<path d="M5.61903 4.80998H2V5.71473H5.61903V4.80998Z"/>
<path d="M10.5952 19.2861H5.66428H10.0976H20.9999V20.1909H10.0976H5.66428H10.5952V19.2861Z"/>
<path fill-rule="evenodd" clip-rule="evenodd" d="M7.88093 22.0004C8.97521 22.0004 9.888 21.2233 10.0976 20.1909C10.1272 20.0447 10.1428 19.8934 10.1428 19.7385C10.1428 19.5836 10.1272 19.4323 10.0976 19.2861C9.888 18.2537 8.97521 17.4766 7.88093 17.4766C6.78664 17.4766 5.87385 18.2537 5.66428 19.2861C5.63461 19.4323 5.61903 19.5836 5.61903 19.7385C5.61903 19.8934 5.63461 20.0447 5.66428 20.1909C5.87385 21.2233 6.78664 22.0004 7.88093 22.0004ZM7.88093 22.9051C9.62982 22.9051 11.0476 21.4874 11.0476 19.7385C11.0476 17.9896 9.62982 16.5718 7.88093 16.5718C6.13203 16.5718 4.71427 17.9896 4.71427 19.7385C4.71427 21.4874 6.13203 22.9051 7.88093 22.9051Z"/>
<path d="M5.61903 19.2861H2V20.1909H5.61903V19.2861Z"/>
</svg>
