<svg width="24" height="24" viewBox="0 0 24 24" fill="currentColor" xmlns="http://www.w3.org/2000/svg">
<path d="M3.16663 13.3334V16C3.16663 17.1966 4.13668 18.1667 5.33329 18.1667C5.79353 18.1667 6.16663 17.7936 6.16663 17.3334V12C6.16663 11.5398 5.79353 11.1667 5.33329 11.1667C4.13668 11.1667 3.16663 12.1367 3.16663 13.3334ZM2.16663 12C2.16663 6.56922 6.56916 2.16669 12 2.16669C17.4308 2.16669 21.8333 6.56922 21.8333 12V16C21.8333 17.5906 20.6606 18.9073 19.1326 19.1326C18.9073 20.6606 17.5906 21.8334 16 21.8334H12.6666V20.8334H16C17.0532 20.8334 17.9309 20.0818 18.1261 19.0857C17.3774 18.8551 16.8333 18.1577 16.8333 17.3334V12C16.8333 10.9875 17.6541 10.1667 18.6666 10.1667C19.4758 10.1667 20.2141 10.4702 20.7738 10.9695C20.2634 6.57653 16.5299 3.16669 12 3.16669C7.47003 3.16669 3.73651 6.57653 3.22609 10.9695C3.78587 10.4702 4.52414 10.1667 5.33329 10.1667C6.34581 10.1667 7.16663 10.9875 7.16663 12V17.3334C7.16663 18.3459 6.34581 19.1667 5.33329 19.1667C3.58439 19.1667 2.16663 17.7489 2.16663 16V12ZM20.8333 13.3334C20.8333 12.1367 19.8632 11.1667 18.6666 11.1667C18.2064 11.1667 17.8333 11.5398 17.8333 12V17.3334C17.8333 17.7936 18.2064 18.1667 18.6666 18.1667C19.8632 18.1667 20.8333 17.1966 20.8333 16V13.3334Z"/>
</svg>
