<svg viewBox="0 0 24 24" fill="none" xmlns="http://www.w3.org/2000/svg">
  <path d="m13.157869,3.76847c1.2179,0.53368 2.2348,1.83495 2.2348,3.9698c0,0.74293 -0.1265,1.42698 -0.2425,1.93617c-0.0418,0.18371 -0.0855,0.35776 -0.1202,0.49579c-0.0125,0.0496 -0.0237,0.0945 -0.0333,0.1335c-0.0259,0.105 -0.0357,0.1551 -0.0391,0.1694l0,0.8584c0,2.3185 -1.4037,4.1553 -3.2942,5.378l-1.0862,-1.6793c1.5333,-0.9917 2.3804,-2.2775 2.3804,-3.6981l0,-0.9075c0,-0.2073 0.0603,-0.45078 0.0917,-0.57725c0.0018,-0.00758 0.0036,-0.01474 0.0053,-0.02145c0.0133,-0.05433 0.027,-0.10868 0.0409,-0.16419c0.0332,-0.13215 0.0681,-0.27086 0.1046,-0.43139c0.1016,-0.44601 0.1926,-0.96444 0.1926,-1.49208c0,-1.42271 -0.6193,-1.95468 -1.0375,-2.13796c-0.0849,-0.03719 -0.1642,-0.06163 -0.2349,-0.07706l0,0.36363c0,0.75418 -0.288,1.47079 -0.6468,2.074c-0.3648,0.61334 -0.8472,1.18441 -1.342,1.66855c-0.4957,0.48506 -1.0292,0.9076 -1.51724,1.2161c-0.24357,0.1539 -0.49104,0.2891 -0.72887,0.389c-0.21773,0.0915 -0.51155,0.1901 -0.82237,0.1901l-1.56302,0l0,6.1679l1.83729,0c0.45283,0 0.82464,0.0809 1.15594,0.2342c0.25276,0.117 0.47026,0.2772 0.59368,0.368c0.02013,0.0149 0.03776,0.0278 0.05263,0.0385c0.12365,0.0885 0.20688,0.1387 0.32334,0.1783c0.12347,0.042 0.33552,0.0885 0.71172,0.0885l6.9926,0c0.0037,-0.0007 0.027,-0.0047 0.0671,-0.0235c0.055,-0.026 0.12,-0.0693 0.1814,-0.1277c0.0617,-0.0587 0.1033,-0.1169 0.1258,-0.1602c0.0065,-0.0124 0.0103,-0.0215 0.0125,-0.0273l0,-0.0619l0.9317,-5.4651l0.0007,-0.0044c0.1031,-0.5892 -0.3958,-1.2053 -1.02,-1.2053l-1.6172,0l0,-2.00003l1.6172,0c1.8907,0 3.3018,1.76013 2.9905,3.54783l-0.0004,0.0023l-0.9053,5.3104c-0.0352,0.6365 -0.3977,1.171 -0.7573,1.513c-0.3836,0.3649 -0.963,0.7019 -1.6207,0.7019l-6.9986,0c-0.5412,0 -0.97939,-0.067 -1.356,-0.1951c-0.38361,-0.1305 -0.65031,-0.3073 -0.8435,-0.4456c-0.04599,-0.033 -0.08374,-0.0603 -0.11541,-0.0832c-0.11346,-0.082 -0.14891,-0.1077 -0.2065,-0.1343c-0.03637,-0.0169 -0.11616,-0.0493 -0.3159,-0.0493l-3.83729,0l0,-10.16793l1,0l2.51845,0c0.0155,-0.00461 0.04591,-0.01444 0.09222,-0.0339c0.10819,-0.04546 0.25572,-0.12248 0.43508,-0.23584c0.35784,-0.22616 0.78192,-0.55855 1.18703,-0.95494c0.40605,-0.39731 0.76772,-0.83418 1.02182,-1.2614c0.2601,-0.43735 0.3657,-0.7939 0.3657,-1.05164l0,-0.90754c0,-0.97047 0.8653,-1.34197 1.3138,-1.43236c0.5355,-0.10793 1.1536,-0.02834 1.7238,0.22149z" fill="currentColor" />
</svg>