<svg width="24" height="24" viewBox="0 0 24 24" fill="currentColor" xmlns="http://www.w3.org/2000/svg">
<path d="M6.16667 11.9167C5.66041 11.9167 5.25 12.3271 5.25 12.8334V18.6667C5.25 19.1729 5.66041 19.5834 6.16667 19.5834H17.8333C18.3396 19.5834 18.75 19.1729 18.75 18.6667V12.8334C18.75 12.3271 18.3396 11.9167 17.8333 11.9167H6.16667ZM3.75 12.8334C3.75 11.4987 4.83198 10.4167 6.16667 10.4167H17.8333C19.168 10.4167 20.25 11.4987 20.25 12.8334V18.6667C20.25 20.0014 19.168 21.0834 17.8333 21.0834H6.16667C4.83198 21.0834 3.75 20.0014 3.75 18.6667V12.8334Z"/>
<path d="M12.0001 4.41669C11.0939 4.41669 10.2249 4.77666 9.58413 5.41741C8.94338 6.05815 8.58341 6.9272 8.58341 7.83335V11.1667C8.58341 11.5809 8.24763 11.9167 7.83341 11.9167C7.4192 11.9167 7.08341 11.5809 7.08341 11.1667V7.83335C7.08341 6.52937 7.60142 5.2788 8.52347 4.35675C9.44553 3.43469 10.6961 2.91669 12.0001 2.91669C13.3041 2.91669 14.5546 3.43469 15.4767 4.35675C16.3987 5.2788 16.9167 6.52937 16.9167 7.83335V11.1667C16.9167 11.5809 16.581 11.9167 16.1667 11.9167C15.7525 11.9167 15.4167 11.5809 15.4167 11.1667V7.83335C15.4167 6.9272 15.0568 6.05815 14.416 5.41741C13.7753 4.77666 12.9062 4.41669 12.0001 4.41669Z"/>
</svg>
