<svg width="24" height="24" viewBox="0 0 24 24" fill="currentColor" xmlns="http://www.w3.org/2000/svg">
<path d="M11.4615 3C7.34064 3 4 6.34064 4 10.4615C4 14.5824 7.34064 17.9231 11.4615 17.9231C15.5824 17.9231 18.9231 14.5824 18.9231 10.4615C18.9231 6.34064 15.5824 3 11.4615 3ZM2 10.4615C2 5.23608 6.23608 1 11.4615 1C16.687 1 20.9231 5.23608 20.9231 10.4615C20.9231 15.687 16.687 19.9231 11.4615 19.9231C6.23608 19.9231 2 15.687 2 10.4615Z"/>
<path d="M16.139 16.6775C16.5296 16.287 17.1627 16.287 17.5533 16.6775L22.1686 21.2929C22.5592 21.6834 22.5592 22.3166 22.1686 22.7071C21.7781 23.0976 21.1449 23.0976 20.7544 22.7071L16.139 18.0917C15.7485 17.7012 15.7485 17.0681 16.139 16.6775Z"/>
</svg>
