<svg width="24" height="24" viewBox="0 0 24 24" fill="currentColor" xmlns="http://www.w3.org/2000/svg">
<path d="M2 5.57143C2 3.59898 3.59898 2 5.57143 2H8.42472C9.47356 2 10.3878 2.71382 10.6422 3.73135L11.3957 6.74526C11.6853 7.90397 11.0341 9.09035 9.901 9.46804L8.47562 9.94317C8.2101 10.0317 8.05204 10.304 8.10693 10.5785C8.64331 13.2604 10.7396 15.3567 13.4215 15.8931C13.696 15.948 13.9683 15.7899 14.0568 15.5244L14.4397 14.3759C14.8795 13.0563 16.3862 12.4322 17.6303 13.0543L20.7365 14.6074C21.5109 14.9945 22 15.786 22 16.6518V18.4286C22 20.401 20.401 22 18.4286 22H15.8571C8.20405 22 2 15.7959 2 8.14286V5.57143ZM5.57143 4C4.70355 4 4 4.70355 4 5.57143V8.14286C4 14.6914 9.30862 20 15.8571 20H18.4286C19.2964 20 20 19.2964 20 18.4286V16.6518C20 16.5435 19.9389 16.4446 19.8421 16.3962L16.7359 14.8431C16.5803 14.7654 16.392 14.8434 16.337 15.0083L15.9542 16.1568C15.5467 17.3792 14.2928 18.1069 13.0293 17.8542C9.55568 17.1595 6.84049 14.4443 6.14577 10.9707C5.89307 9.70722 6.62076 8.45327 7.84316 8.04581L9.26854 7.57068C9.41018 7.52347 9.49159 7.37517 9.45538 7.23033L8.7019 4.21642C8.6701 4.08923 8.55582 4 8.42472 4H5.57143Z"/>
</svg>
