<svg width="24" height="24" viewBox="0 0 24 24" fill="currentColor" xmlns="http://www.w3.org/2000/svg">
<path fill-rule="evenodd" clip-rule="evenodd" d="M8.16795 3.9453C8.35342 3.6671 8.66565 3.5 9 3.5H15.0625C15.402 3.5 15.7183 3.67227 15.9025 3.95747L17.5446 6.5H19.2188C20.8021 6.5 22 7.83651 22 9.375V17.625C22 19.1635 20.8021 20.5 19.2188 20.5H4.78125C3.19785 20.5 2 19.1635 2 17.625V9.375C2 7.83651 3.19785 6.5 4.78125 6.5H6.46482L8.16795 3.9453ZM9.53518 5.5L7.83205 8.0547C7.64658 8.3329 7.33435 8.5 7 8.5H4.78125C4.39785 8.5 4 8.84318 4 9.375V17.625C4 18.1568 4.39785 18.5 4.78125 18.5H19.2188C19.6021 18.5 20 18.1568 20 17.625V9.375C20 8.84318 19.6021 8.5 19.2188 8.5H17C16.6605 8.5 16.3442 8.32773 16.16 8.04253L14.5179 5.5H9.53518Z"/>
<path fill-rule="evenodd" clip-rule="evenodd" d="M12 10.5C10.8954 10.5 10 11.3954 10 12.5C10 13.6046 10.8954 14.5 12 14.5C13.1046 14.5 14 13.6046 14 12.5C14 11.3954 13.1046 10.5 12 10.5ZM8 12.5C8 10.2909 9.79086 8.5 12 8.5C14.2091 8.5 16 10.2909 16 12.5C16 14.7091 14.2091 16.5 12 16.5C9.79086 16.5 8 14.7091 8 12.5Z"/>
</svg>
