<svg width="24" height="24" viewBox="0 0 24 24" fill="currentColor" xmlns="http://www.w3.org/2000/svg">
<path  d="M12.1 4C8.13319 4 5 7.05239 5 10.7143C5 13.5593 6.49342 15.8866 8.23341 17.5437C9.09864 18.3677 10.0012 19.0018 10.7546 19.425C11.1315 19.6367 11.4595 19.7891 11.7164 19.8857C11.9491 19.9733 12.0688 19.994 12.0956 19.9987L12.1 19.9995L12.1044 19.9987C12.1312 19.994 12.2509 19.9733 12.4836 19.8857C12.7405 19.7891 13.0685 19.6367 13.4454 19.425C14.1988 19.0018 15.1014 18.3677 15.9666 17.5437C17.7066 15.8866 19.2 13.5593 19.2 10.7143C19.2 7.05239 16.0668 4 12.1 4ZM3 10.7143C3 5.85698 7.12171 2 12.1 2C17.0783 2 21.2 5.85698 21.2 10.7143C21.2 14.2978 19.3184 17.1134 17.3459 18.992C16.3549 19.9358 15.3168 20.6678 14.4249 21.1688C13.9791 21.4191 13.5584 21.6183 13.1877 21.7577C12.8447 21.8867 12.454 22 12.1 22C11.746 22 11.3553 21.8867 11.0123 21.7577C10.6416 21.6183 10.2209 21.4191 9.77514 21.1688C8.8832 20.6678 7.84511 19.9358 6.85409 18.992C4.88158 17.1134 3 14.2978 3 10.7143ZM8.4 10.7143C8.4 8.69712 10.1039 7.14283 12.1 7.14283C14.0961 7.14283 15.8 8.69712 15.8 10.7143C15.8 12.7314 14.0962 14.2857 12.1 14.2857C10.1038 14.2857 8.4 12.7314 8.4 10.7143ZM12.1 9.14283C11.1153 9.14283 10.4 9.89253 10.4 10.7143C10.4 11.536 11.1154 12.2857 12.1 12.2857C13.0846 12.2857 13.8 11.536 13.8 10.7143C13.8 9.89253 13.0847 9.14283 12.1 9.14283Z"/>
</svg>
