<svg width="24" height="24" viewBox="0 0 24 24" fill="currentColor" xmlns="http://www.w3.org/2000/svg">
<path fill-rule="evenodd" clip-rule="evenodd" d="M12 22C17.5228 22 22 17.5228 22 12C22 6.47715 17.5228 2 12 2C6.47715 2 2 6.47715 2 12C2 17.5228 6.47715 22 12 22ZM12 24C18.6274 24 24 18.6274 24 12C24 5.37258 18.6274 0 12 0C5.37258 0 0 5.37258 0 12C0 18.6274 5.37258 24 12 24Z"/>
<path d="M11.3229 14.3471H12.5379L12.6879 13.1321C14.3529 12.8471 15.7029 11.9921 15.7029 10.1021C15.7029 8.1971 14.2929 7.0271 12.1929 7.0271C10.5729 7.0271 9.44788 7.7021 8.57788 8.6921L9.70288 9.8921C10.4229 9.1271 11.2029 8.7071 12.1479 8.7071C13.2279 8.7071 13.8729 9.2921 13.8729 10.1321C13.8729 11.1521 13.0029 11.7671 11.0979 11.8421L11.0229 11.9171L11.3229 14.3471ZM10.8879 17.6621H12.8979V15.6071H10.8879V17.6621Z"/>
</svg>
