<svg width="24" height="24" viewBox="0 0 24 24" fill="currentColor" xmlns="http://www.w3.org/2000/svg">
<path d="M19.996 20L20 19.9994V14.1313C20 11.2606 19.3819 9.04939 16.026 9.04939C14.4125 9.04939 13.33 9.9347 12.8879 10.7741H12.8413V9.31752H9.65942V19.9994H12.9729V14.71C12.9729 13.3172 13.2369 11.9706 14.9616 11.9706C16.661 11.9706 16.6863 13.56 16.6863 14.7994V20H19.996Z"/>
<path d="M4.26404 9.31813H7.58123V20H4.26404V9.31813Z"/>
<path d="M5.92125 4C4.86063 4 4 4.86063 4 5.92125C4 6.98188 4.86063 7.86063 5.92125 7.86063C6.98187 7.86063 7.8425 6.98188 7.8425 5.92125C7.84187 4.86063 6.98125 4 5.92125 4Z"/>
</svg>
