<svg width="24" height="24" viewBox="0 0 24 24" fill="currentColor" xmlns="http://www.w3.org/2000/svg">
<path fill-rule="evenodd" clip-rule="evenodd" d="M19.6785 8.83059C19.7124 9.41996 19.7286 10.4814 19.7286 12.0143C19.7286 13.5479 19.7124 14.6094 19.6785 15.1987C19.6114 16.5919 19.1963 17.6696 18.4334 18.4333C17.6697 19.197 16.592 19.6121 15.1988 19.6792C14.6094 19.7116 13.5487 19.7293 12.0143 19.7293C10.4815 19.7293 9.42002 19.7116 8.83065 19.6792C7.43745 19.6121 6.35976 19.197 5.59605 18.4333C4.83233 17.6696 4.41731 16.5919 4.35019 15.1987C4.31702 14.6094 4.30005 13.5479 4.30005 12.0143C4.30005 10.4814 4.31702 9.41996 4.35019 8.83059C4.41731 7.43739 4.83233 6.3597 5.59605 5.59599C6.35976 4.83227 7.43745 4.41724 8.83065 4.35013C9.42002 4.31696 10.4815 4.29999 12.0143 4.29999C13.5487 4.29999 14.6094 4.31696 15.1988 4.35013C16.592 4.41724 17.6697 4.83227 18.4334 5.59599C19.1963 6.3597 19.6114 7.43739 19.6785 8.83059ZM16.7856 7.24305C16.9661 7.42433 17.0572 7.64187 17.0572 7.89645C17.0572 8.15102 16.9661 8.36856 16.7856 8.54907C16.6051 8.73036 16.3868 8.82062 16.133 8.82062C15.8784 8.82062 15.6609 8.73036 15.4804 8.54907C15.2991 8.36856 15.2088 8.15102 15.2088 7.89645C15.2088 7.64187 15.2991 7.42433 15.4804 7.24305C15.6609 7.06253 15.8784 6.97228 16.133 6.97228C16.3868 6.97228 16.6051 7.06253 16.7856 7.24305M14.8169 9.21247C15.5868 9.98236 15.9718 10.9166 15.9718 12.0143C15.9718 13.1128 15.5868 14.047 14.8169 14.8177C14.047 15.5876 13.1128 15.9725 12.0143 15.9725C10.9166 15.9725 9.98239 15.5876 9.21251 14.8177C8.44262 14.047 8.05691 13.1128 8.05691 12.0143C8.05691 10.9166 8.44262 9.98236 9.21251 9.21247C9.98239 8.44259 10.9166 8.05687 12.0143 8.05687C13.1128 8.05687 14.047 8.44259 14.8169 9.21247M13.8326 13.8326C14.3348 13.3304 14.5855 12.724 14.5855 12.0143C14.5855 11.3054 14.3348 10.699 13.8326 10.1968C13.3304 9.69463 12.724 9.44314 12.0143 9.44314C11.3054 9.44314 10.699 9.69463 10.1961 10.1968C9.69465 10.699 9.44316 11.3054 9.44316 12.0143C9.44316 12.724 9.69465 13.3304 10.1961 13.8326C10.699 14.3355 11.3054 14.5863 12.0143 14.5863C12.724 14.5863 13.3304 14.3355 13.8326 13.8326"/>
</svg>
