<svg width="24" height="24" viewBox="0 0 24 24" fill="currentColor" xmlns="http://www.w3.org/2000/svg">
<path d="M12.0182 4.7443C13.2412 4.7443 14.2325 5.73876 14.2325 6.9657C14.2325 8.19265 13.2412 9.18711 12.0182 9.18711C10.7952 9.18711 9.80392 8.19265 9.80392 6.9657C9.80392 5.73876 10.7958 4.7443 12.0182 4.7443ZM12.0182 12.3214C14.9665 12.3214 17.3567 9.91743 17.3567 6.9657C17.3567 4.01397 14.9605 1.60999 12.0182 1.60999C9.07594 1.60999 6.67966 4.01397 6.67966 6.9657C6.67966 9.91743 9.07594 12.3214 12.0182 12.3214ZM14.1779 16.6973C15.2735 16.4484 16.3194 16.0169 17.2718 15.4192C18.0022 14.9555 18.2194 13.9853 17.7571 13.2526C17.2949 12.5198 16.3279 12.3019 15.5974 12.7657C13.3965 14.1454 10.6035 14.1454 8.40255 12.7657C7.67214 12.3019 6.70514 12.5198 6.24287 13.2526C5.7806 13.9853 5.99778 14.9555 6.72819 15.4192C7.69277 16.0278 8.73014 16.4538 9.82212 16.6973L6.84952 19.6977C6.23802 20.3112 6.23802 21.3056 6.84952 21.9191C7.46103 22.5326 8.4523 22.5326 9.0638 21.9191L12 18.9674L14.9362 21.913C15.5471 22.5265 16.5384 22.5271 17.1499 21.9136C17.7614 21.3008 17.7626 20.3057 17.1511 19.6922L14.1597 16.6912"/>
</svg>
