<svg width="24" height="24" viewBox="0 0 24 24" fill="currentColor" xmlns="http://www.w3.org/2000/svg">
<path d="M12.9101 17.0411C12.9101 17.0411 13.2451 17.0051 13.4167 16.827C13.5737 16.6638 13.5683 16.3558 13.5683 16.3558C13.5683 16.3558 13.5474 14.9178 14.2382 14.7055C14.919 14.4967 15.7932 16.0961 16.721 16.7112C17.4217 17.1762 17.9537 17.0744 17.9537 17.0744L20.4328 17.0411C20.4328 17.0411 21.7291 16.9638 21.1145 15.9786C21.0637 15.8979 20.756 15.2495 19.2718 13.9177C17.7168 12.5235 17.9256 12.749 19.7974 10.3372C20.9375 8.86846 21.3932 7.9718 21.2507 7.5884C21.1155 7.22166 20.2767 7.31905 20.2767 7.31905L17.4862 7.33572C17.4862 7.33572 17.2792 7.30852 17.1258 7.39713C16.976 7.48399 16.8789 7.68666 16.8789 7.68666C16.8789 7.68666 16.4377 8.82284 15.8486 9.78969C14.6059 11.8287 14.1093 11.9366 13.906 11.8102C13.433 11.5146 13.551 10.6241 13.551 9.99148C13.551 8.01479 13.8615 7.19095 12.9474 6.97776C12.6442 6.90669 12.4209 6.86019 11.6447 6.85229C10.6489 6.84264 9.80649 6.8558 9.329 7.08128C9.01128 7.23131 8.76619 7.56646 8.91597 7.58576C9.10025 7.60945 9.51782 7.69456 9.73931 7.98584C10.0253 8.36223 10.0153 9.20624 10.0153 9.20624C10.0153 9.20624 10.1796 11.533 9.63129 11.8216C9.25547 12.0199 8.73986 11.6155 7.63148 9.76512C7.06412 8.81757 6.63566 7.77001 6.63566 7.77001C6.63566 7.77001 6.55305 7.57436 6.40509 7.46908C6.22626 7.34186 5.97662 7.30238 5.97662 7.30238L3.32503 7.31905C3.32503 7.31905 2.92652 7.32958 2.78037 7.49715C2.65056 7.64542 2.77039 7.95338 2.77039 7.95338C2.77039 7.95338 4.84645 12.6481 7.19757 15.0144C9.35351 17.1832 11.8009 17.0411 11.8009 17.0411H12.9101Z"/>
</svg>
