<svg width="24" height="24" viewBox="0 0 24 24" fill="currentColor" xmlns="http://www.w3.org/2000/svg">
<path d="M10.02 13.9439L13.2458 12.0492L10.02 10.1544V13.9439Z"/>
<path d="M15.7467 12.7089L9.91333 15.9838C9.785 16.0558 9.6425 16.0919 9.5 16.0919C9.35583 16.0919 9.21083 16.055 9.08167 15.9813C8.825 15.8348 8.66667 15.5646 8.66667 15.2732V8.72345C8.66667 8.43117 8.825 8.16181 9.08167 8.01526C9.34 7.86871 9.65583 7.86789 9.91333 8.01281L15.7467 11.2877C16.0067 11.4326 16.1667 11.7044 16.1667 11.9983C16.1667 12.2922 16.0067 12.5632 15.7467 12.7089ZM21.81 8.1921C21.81 8.18801 21.8092 8.18392 21.8083 8.17901C21.7725 7.92111 21.5583 6.59725 20.8667 5.88661C20.02 4.98848 19.0692 4.89678 18.6125 4.85339L18.48 4.84029C15.915 4.65117 12.1667 4.6307 11.9917 4.62988C11.8333 4.6307 8.08417 4.65117 5.48333 4.84357L5.38667 4.85339C4.93083 4.89678 3.98 4.98848 3.1425 5.8776C2.4425 6.59725 2.2275 7.92029 2.18917 8.1921C2.18167 8.25596 2 9.76322 2 11.2991V12.7098C2 14.2473 2.18167 15.7546 2.19083 15.8315C2.22667 16.0894 2.44167 17.4133 3.13333 18.1223C3.92 18.9557 4.8925 19.0744 5.41583 19.1383C5.48917 19.1473 5.555 19.1547 5.68417 19.1751C7.17083 19.3209 11.7958 19.3643 12.0008 19.3667C12.16 19.3659 15.9133 19.3577 18.5208 19.167L18.6192 19.1563C19.075 19.1113 20.0233 19.0171 20.8567 18.1329C21.5575 17.4133 21.7725 16.0902 21.81 15.8184C21.8183 15.7546 22 14.2473 22 12.7106V11.2999C22 9.76322 21.8183 8.25596 21.81 8.1921Z"/>
</svg>
