<svg width="48" height="48" viewBox="0 0 48 48" fill="currentColor" xmlns="http://www.w3.org/2000/svg">
<path fill-rule="evenodd" clip-rule="evenodd" d="M1 9C1 5.13401 4.13401 2 8 2H33C36.866 2 40 5.13401 40 9V34C40 37.866 36.866 41 33 41H10.355L2.63059 47.2761C2.33119 47.5194 1.91856 47.5687 1.57023 47.4029C1.2219 47.2371 1 46.8858 1 46.5V9ZM8 4C5.23858 4 3 6.23858 3 9V44.399L9.36941 39.2239C9.54766 39.0791 9.77033 39 10 39H33C35.7614 39 38 36.7614 38 34V9C38 6.23858 35.7614 4 33 4H8Z"/>
<path fill-rule="evenodd" clip-rule="evenodd" d="M20.5 13C18.0147 13 16 15.0147 16 17.5C16 18.0523 15.5523 18.5 15 18.5C14.4477 18.5 14 18.0523 14 17.5C14 13.9101 16.9101 11 20.5 11C24.0899 11 27 13.9101 27 17.5C27 20.7498 24.6151 23.4425 21.5 23.9236V25.5C21.5 26.0523 21.0523 26.5 20.5 26.5C19.9477 26.5 19.5 26.0523 19.5 25.5V22H20.5C22.9853 22 25 19.9853 25 17.5C25 15.0147 22.9853 13 20.5 13Z"/>
<path fill-rule="evenodd" clip-rule="evenodd" d="M20.5 29.2928C21.218 29.2928 21.8 29.8748 21.8 30.5928V30.6749C21.8 31.3928 21.218 31.9749 20.5 31.9749C19.782 31.9749 19.2 31.3928 19.2 30.6749V30.5928C19.2 29.8748 19.782 29.2928 20.5 29.2928Z"/>
</svg>
