<svg width="48" height="48" viewBox="0 0 48 48" fill="currentColor" xmlns="http://www.w3.org/2000/svg">
<path d="M14.367 6.50009C8.19167 7.80598 4.24419 13.8707 5.55008 20.0461C6.85597 26.2214 12.9207 30.1689 19.0961 28.863C25.2714 27.5571 29.2189 21.4924 27.913 15.317C26.6071 9.14169 20.5424 5.1942 14.367 6.50009ZM3.59328 20.4599C2.05886 13.2038 6.69716 6.07772 13.9532 4.54329C21.2093 3.00887 28.3354 7.64717 29.8698 14.9032C31.4042 22.1593 26.7659 29.2854 19.5099 30.8198C12.2538 32.3542 5.1277 27.7159 3.59328 20.4599Z"/>
<path d="M12.2312 13.9503C11.679 13.9503 11.2313 14.398 11.2313 14.9503H9.23118C9.23118 13.2934 10.5743 11.9503 12.2312 11.9503C13.8881 11.9503 15.2313 13.2934 15.2313 14.9503H13.2312C13.2312 14.398 12.7835 13.9503 12.2312 13.9503Z"/>
<path d="M21.2312 13.9503C20.679 13.9503 20.2313 14.398 20.2313 14.9503H18.2312C18.2312 13.2934 19.5743 11.9503 21.2312 11.9503C22.8881 11.9503 24.2313 13.2934 24.2313 14.9503H22.2312C22.2312 14.398 21.7835 13.9503 21.2312 13.9503Z"/>
<path d="M16.7312 22.9503C14.3023 22.9503 12.7313 21.4104 12.7313 19.9503H10.7312C10.7312 22.9084 13.6373 24.9503 16.7312 24.9503C19.8252 24.9503 22.7313 22.9084 22.7313 19.9503H20.7312C20.7312 21.4104 19.1601 22.9503 16.7312 22.9503Z"/>
<path d="M28.8997 19.1344C22.7244 20.4402 18.7769 26.505 20.0828 32.6803C21.3887 38.8557 27.4534 42.8032 33.6288 41.4973C39.8041 40.1914 43.7516 34.1267 42.4457 27.9513C41.1398 21.7759 35.0751 17.8285 28.8997 19.1344ZM18.126 33.0941C16.5916 25.8381 21.2299 18.712 28.4859 17.1776C35.742 15.6431 42.8681 20.2814 44.4025 27.5375C45.9369 34.7936 41.2986 41.9197 34.0426 43.4541C26.7865 44.9885 19.6604 40.3502 18.126 33.0941Z"/>
<path d="M26.7639 26.5846C26.2117 26.5846 25.764 27.0323 25.764 27.5846H23.7639C23.7639 25.9277 25.1071 24.5845 26.7639 24.5845C28.4208 24.5845 29.764 25.9277 29.764 27.5846H27.7639C27.7639 27.0323 27.3162 26.5846 26.7639 26.5846Z"/>
<path d="M35.7639 26.5846C35.2117 26.5846 34.764 27.0323 34.764 27.5846H32.7639C32.7639 25.9277 34.1071 24.5845 35.7639 24.5845C37.4208 24.5845 38.764 25.9277 38.764 27.5846H36.7639C36.7639 27.0323 36.3162 26.5846 35.7639 26.5846Z"/>
<path d="M27.5044 33.5846H35.0234C34.4962 34.6713 33.1344 35.5845 31.2639 35.5845C29.3935 35.5845 28.0317 34.6713 27.5044 33.5846ZM25.2639 32.5846C25.2639 35.5427 28.17 37.5846 31.2639 37.5846C34.3579 37.5846 37.264 35.5427 37.264 32.5846V31.5845H25.2639V32.5846Z"/>
</svg>
