<svg width="48" height="48" viewBox="0 0 48 48" fill="currentColor" xmlns="http://www.w3.org/2000/svg">
<path d="M19 16.0668V18H29V16.0662C28.9833 16.0371 28.9259 15.9395 28.7527 15.7746C28.488 15.5226 28.0755 15.2338 27.5493 14.9588C26.4894 14.4049 25.1486 14 24 14C22.8568 14 21.5159 14.4047 20.454 14.959C19.927 15.2341 19.5135 15.5231 19.2479 15.7754C19.0746 15.94 19.0168 16.0375 19 16.0668ZM19.5285 13.186C20.7941 12.5253 22.4532 12 24 12C25.5514 12 27.2106 12.5251 28.4757 13.1862C29.1119 13.5187 29.6933 13.9086 30.1317 14.326C30.5202 14.6959 31 15.2785 31 16V18C31 19.1023 30.1023 20 29 20H19C17.8977 20 17 19.1023 17 18V16C17 15.2774 17.4818 14.6945 17.8705 14.3253C18.3097 13.9081 18.8918 13.5184 19.5285 13.186Z"/>
<path d="M19 7.29C19 4.46749 20.953 2 24 2C27.0586 2 29 4.46925 29 7.29V8.71C29 11.5325 27.047 14 24 14C20.9428 14 19 11.5323 19 8.72V7.29ZM24 4C22.247 4 21 5.37251 21 7.29V8.72C21 10.6277 22.2372 12 24 12C25.753 12 27 10.6275 27 8.71V7.29C27 5.37075 25.7614 4 24 4Z"/>
<path d="M5 42.0662V44H15V42.0662C14.9833 42.0371 14.9259 41.9395 14.7527 41.7746C14.488 41.5226 14.0756 41.2338 13.5493 40.9588C12.4894 40.4049 11.1486 40 10 40C8.85143 40 7.5106 40.4049 6.45065 40.9588C5.92445 41.2338 5.51201 41.5226 5.24732 41.7746C5.07412 41.9395 5.01666 42.037 5 42.0662ZM5.52435 39.1862C6.7894 38.5251 8.44857 38 10 38C11.5514 38 13.2106 38.5251 14.4757 39.1862C15.1119 39.5187 15.6933 39.9086 16.1317 40.326C16.5202 40.6959 17 41.2785 17 42V44C17 45.1023 16.1023 46 15 46H5C3.89772 46 3 45.1023 3 44V42C3 41.2785 3.47982 40.6959 3.8683 40.326C4.30674 39.9086 4.88805 39.5187 5.52435 39.1862Z"/>
<path d="M5 33.29C5 30.4675 6.95296 28 10 28C13.0572 28 15 30.4677 15 33.28V34.71C15 37.5325 13.047 40 10 40C6.94281 40 5 37.5323 5 34.72V33.29ZM10 30C8.24704 30 7 31.3725 7 33.29V34.72C7 36.6277 8.23719 38 10 38C11.753 38 13 36.6275 13 34.71V33.28C13 31.3723 11.7628 30 10 30Z"/>
<path d="M33 42.0668V44H43V42.0662C42.9833 42.0371 42.9259 41.9395 42.7527 41.7746C42.488 41.5226 42.0755 41.2338 41.5493 40.9588C40.4894 40.4049 39.1486 40 38 40C36.8568 40 35.5159 40.4047 34.454 40.959C33.927 41.2341 33.5135 41.5231 33.2479 41.7754C33.0746 41.94 33.0168 42.0375 33 42.0668ZM33.5285 39.186C34.7941 38.5253 36.4532 38 38 38C39.5514 38 41.2106 38.5251 42.4757 39.1862C43.1119 39.5187 43.6933 39.9086 44.1317 40.326C44.5202 40.6959 45 41.2785 45 42V44C45 45.1023 44.1023 46 43 46H33C31.8977 46 31 45.1023 31 44V42C31 41.2774 31.4818 40.6945 31.8705 40.3253C32.3097 39.9081 32.8918 39.5184 33.5285 39.186Z"/>
<path d="M33 33.28C33 30.4575 34.953 27.99 38 27.99C41.0586 27.99 43 30.4593 43 33.28V34.71C43 37.5325 41.047 40 38 40C34.953 40 33 37.5325 33 34.71V33.28ZM38 29.99C36.247 29.99 35 31.3625 35 33.28V34.71C35 36.6275 36.247 38 38 38C39.753 38 41 36.6275 41 34.71V33.28C41 31.3607 39.7614 29.99 38 29.99Z"/>
<path d="M23 29V22H25V29H23Z"/>
<path d="M24.5547 28.1679L30.5547 32.1679L29.4453 33.8321L23.4453 29.8321L24.5547 28.1679Z"/>
<path d="M24.5547 29.8321L18.5547 33.8321L17.4453 32.1679L23.4453 28.1679L24.5547 29.8321Z"/>
</svg>
