<svg width="64" height="64" viewBox="0 0 64 64" fill="#01519D" xmlns="http://www.w3.org/2000/svg">
<path d="M45.8321 25.8321L28.875 42.7892L20.0429 33.9571L21.4571 32.5429L28.875 39.9607L44.4179 24.4179L45.8321 25.8321Z"/>
<path fill-rule="evenodd" clip-rule="evenodd" d="M32 60C47.464 60 60 47.464 60 32C60 16.536 47.464 4 32 4C16.536 4 4 16.536 4 32C4 47.464 16.536 60 32 60ZM32 62C48.5685 62 62 48.5685 62 32C62 15.4315 48.5685 2 32 2C15.4315 2 2 15.4315 2 32C2 48.5685 15.4315 62 32 62Z"/>
</svg>
