<svg width="543" height="485" viewBox="0 0 543 485" fill="none" xmlns="http://www.w3.org/2000/svg">
<path d="M119.911 47.1076C42.5881 111.767 -52.0326 265.096 36.8415 374.127C206.474 582.234 328.572 411.535 444.84 378.436C561.109 345.337 480.894 59.6776 363.589 17.9076C259.031 -19.3256 162.766 11.2713 119.911 47.1076Z" fill="#01519D"/>
<path d="M293.446 386.594C291.22 387.041 288.974 387.484 286.709 387.922C286.675 387.922 286.643 387.936 286.608 387.94C274.562 390.267 261.965 392.427 248.969 394.363C221.882 398.403 196.14 401.028 173.268 402.284C166.509 402.656 160 402.908 153.782 403.041C151.319 403.093 148.903 403.127 146.536 403.143C144.246 403.159 142.001 403.159 139.801 403.143C104.001 402.835 80.6586 397.972 79.2999 388.868C77.8568 379.175 101.652 366.808 139.801 355.484C141.999 354.832 144.244 354.183 146.536 353.537C148.905 352.866 151.32 352.204 153.782 351.551C159.995 349.895 166.491 348.276 173.268 346.694C193.521 341.97 216.089 337.658 239.979 334.096C256.104 331.69 271.752 329.786 286.6 328.375L286.701 328.365C288.966 328.152 291.212 327.95 293.438 327.761C359.152 322.091 407.673 326.352 409.646 339.603C411.717 353.411 362.453 372.667 293.446 386.594Z" fill="#202429"/>
<path d="M489.613 126.922C489.613 126.922 484.545 125.813 490.06 120.602C494.333 116.564 500.082 113.521 501.698 115.368C503.315 117.216 489.613 126.922 489.613 126.922Z" fill="#202429"/>
<path d="M378.453 116.284C378.453 116.284 379.726 114.817 378.453 109.93C377.181 105.043 372.491 95.4616 374.251 95.0711C376.01 94.6806 378.868 102.75 379.77 102.849C380.672 102.947 380.746 101.707 380.442 99.0142C380.138 96.3211 378.399 88.3684 379.79 88.5475C381.181 88.7267 383.093 90.8059 384.178 99.3222C384.178 99.3222 385.003 101.711 385.917 97.5831C386.831 93.4548 387.306 86.0275 388.652 86.0698C389.999 86.112 391.348 88.8877 390.651 92.8912C389.955 96.8947 388.524 102.492 390.047 101.971C391.571 101.45 395.305 92.7121 396.392 91.9351C397.479 91.1582 398.173 96.0634 395.478 100.928C392.783 105.793 391.825 109.038 393.737 108.478C395.649 107.919 400.687 105.351 401.732 106.741C402.776 108.132 393.996 112.176 392 115.145C390.003 118.114 383.345 122.816 383.345 122.816L378.453 116.284Z" fill="white" stroke="#202429" stroke-width="1.20769" stroke-miterlimit="10"/>
<path d="M501.563 119.895C501.563 119.895 499.953 118.828 499.845 113.778C499.736 108.728 501.668 98.2373 499.869 98.3379C498.069 98.4386 497.504 106.979 496.662 107.317C495.821 107.655 495.412 106.484 494.976 103.809C494.539 101.134 494.062 93.008 492.761 93.5434C491.461 94.0788 490.195 96.6129 491.453 105.105C491.453 105.105 491.306 107.629 489.309 103.897C487.313 100.166 484.845 93.1489 483.559 93.5555C482.273 93.9621 481.731 97.0014 483.482 100.663C485.234 104.324 488.13 109.33 486.524 109.239C484.917 109.149 478.96 101.754 477.701 101.295C476.443 100.836 477.098 105.749 481.015 109.704C484.932 113.66 486.725 116.548 484.732 116.512C482.74 116.475 477.194 115.382 476.566 117.003C475.938 118.623 485.481 120.135 488.21 122.46C490.94 124.784 498.609 127.504 498.609 127.504L501.563 119.895Z" fill="white" stroke="#202429" stroke-width="1.20769" stroke-miterlimit="10"/>
<path d="M360.05 441.427L360.31 461.604L371.398 464.714L375.736 441.057L360.05 441.427Z" fill="white" stroke="#202429" stroke-width="1.20769" stroke-miterlimit="10"/>
<path d="M446.547 441.282L450.619 463.763L462.126 465.293L461.921 438.116L446.547 441.282Z" fill="white" stroke="#202429" stroke-width="1.20769" stroke-miterlimit="10"/>
<path d="M477.79 245.934C476.423 287.032 463.902 366.961 463.902 366.961C470.051 414.616 466.355 445.473 466.355 445.473C458.614 453.792 440.539 446.636 440.539 446.636C440.786 441.22 430.754 393.776 428.198 371.274C427.898 368.638 427.719 366.48 427.695 364.946C427.457 350.323 421.882 297.374 421.882 297.374C421.882 297.374 401.067 333.176 396.52 369.485C391.974 405.794 376.487 452.691 376.487 452.691C367.379 455.465 356.451 449.672 356.451 449.672C356.451 449.672 359.183 416.893 360.092 388.15C361.002 359.407 361.461 362.935 364.193 343.773C366.924 324.611 376.487 238.378 376.487 238.378C376.487 238.378 479.157 204.834 477.79 245.934Z" fill="#FEF7EF" stroke="#202429" stroke-width="1.20769" stroke-miterlimit="10"/>
<path d="M374.587 252.415C374.587 252.415 409.719 259.349 440.378 252.711C471.037 246.073 376.022 238.334 376.022 238.334L374.587 252.415Z" fill="#202429"/>
<path d="M428.198 371.272C427.898 368.636 427.719 366.478 427.695 364.944C427.458 350.321 421.882 297.372 421.882 297.372C421.882 297.372 427.931 282.747 430.209 279.888C430.209 279.888 424.897 310.147 430.209 325.946C435.503 341.666 428.271 370.976 428.198 371.272Z" fill="#202429"/>
<path d="M438.764 100.639C438.764 100.639 429.792 101.18 426.687 113.253C426.687 113.253 426.284 116.659 422.862 120.326C421.624 121.656 421.252 122.425 423.512 124.112C425.034 125.249 420.813 135.849 436.463 137.397L434.45 152.724L458.127 154.395C458.127 154.395 451.571 139.623 454.337 131.596C457.102 123.569 447.87 100.234 438.764 100.639Z" fill="white" stroke="#202429" stroke-width="1.20769" stroke-miterlimit="10"/>
<path d="M438.427 95.9849C438.427 95.9849 431.815 97.7401 428.039 94.2982C428.039 94.2982 424.935 106.913 437.347 107.52C437.347 107.52 442.203 107.182 441.732 110.421C441.261 113.659 438.629 119.39 441.33 119.931C444.031 120.473 445.046 116.224 448.683 118.724C451.684 120.781 446.026 124.925 448.52 128.434C451.014 131.942 456.102 132.89 457.376 132.351C457.376 132.351 457.376 130.595 458.523 128.504C459.671 126.413 472.732 115.713 457.316 98.8713C457.314 98.8632 450.231 92.6798 438.427 95.9849Z" fill="#202429"/>
<path d="M436.62 136.887C436.62 136.887 439.732 137.437 441.592 136.831C443.451 136.225 435.314 146.215 435.314 146.215L436.62 136.887Z" fill="#202429"/>
<path d="M526.08 182.852L526.066 182.866L526.053 182.878L526.025 182.905L525.997 182.931L525.943 182.981C525.576 183.335 525.206 183.687 524.832 184.036C508.496 199.365 486.5 212.366 486.228 212.527C483.724 228.008 483.647 249.865 483.647 249.865C483.647 249.865 436.292 255.481 403.356 250.928C370.42 246.375 368.599 236.357 368.599 236.357L378.3 205.251C338.835 196.449 321.382 162.601 320.935 153.342C320.488 144.083 376.93 115.391 376.93 115.391C376.93 115.391 380.494 114.859 384.442 118.502C388.389 122.146 384.822 128.444 384.822 128.444L354.086 155.158C354.086 155.158 363.724 157.585 384.365 148.842C405.006 140.098 408.652 140.738 427.691 146.225C446.73 151.712 455.452 146.911 455.452 146.911C455.452 146.911 461.168 144.24 469.477 142.986C477.786 141.732 512.733 157.557 516.148 156.192C517.682 155.589 512.147 149.294 505.579 142.558C497.528 134.293 487.921 125.346 487.921 125.346C497.938 123.41 501.694 115.376 501.694 115.376C502.119 115.578 529.403 128.176 540.846 150.766C545.544 160.009 537.396 171.943 526.08 182.852Z" fill="#01519D" stroke="#202429" stroke-width="1.20769" stroke-miterlimit="10"/>
<path d="M378.28 204.752C378.28 204.752 385.432 206.612 390.442 206.004C395.452 205.396 386.551 211.036 384.117 212.127C381.05 213.495 379.689 215.627 378.703 219.816C378.053 222.575 372.169 224.882 372.169 224.882L378.28 204.752Z" fill="#202429"/>
<path d="M519.286 188.893C501.201 203.564 486.495 212.282 486.218 212.443L485.759 212.213L488.842 190.249C489.317 186.224 489.648 191.743 494.99 197.163C499.73 201.976 519.286 188.893 519.286 188.893Z" fill="#202429"/>
<path d="M353.38 155.424C353.38 155.424 347.005 153.678 343.477 151.629C343.477 151.629 341.579 149.238 348.788 149.58C355.998 149.922 370.163 141.197 370.163 141.197L353.38 155.424Z" fill="#202429"/>
<path d="M514.808 156.726C516.342 156.112 512.159 149.278 505.591 142.547C505.746 142.574 510.702 143.457 513.391 147.266C516.122 151.136 521.511 152.652 522.195 155.158C522.879 157.664 514.808 156.726 514.808 156.726Z" fill="#202429"/>
<path d="M526.482 182.005C526.482 182.005 524.542 183.627 524.168 183.977C524.168 183.977 536.301 169.07 537.414 157.181C538.521 145.337 501.857 116.886 501.562 116.663L501.93 116.059C501.68 115.656 529.103 128.206 540.55 150.796C545.24 160.047 536.605 171.246 526.482 182.005Z" fill="#1E6AB1"/>
<path d="M483.633 249.869C483.633 249.869 484.33 252.687 477.152 254.961L477.46 250.511L483.633 249.869Z" fill="#202429"/>
<path d="M374.313 463.351C374.313 463.351 363.585 462.431 359.36 457.624C359.36 457.624 339.956 471.855 335.341 474.276C335.341 474.276 329.795 477.958 332.279 483.793C340.242 484.24 374.176 483.908 374.176 483.908C374.176 483.908 374.001 467.638 374.313 463.351Z" fill="#202429"/>
<path d="M359.364 457.624C359.364 457.624 361.284 442.627 356.238 440.419C351.192 438.211 352.301 446.127 359.364 457.624Z" stroke="#202429" stroke-width="1.20769" stroke-miterlimit="10"/>
<path d="M359.364 457.624C359.364 457.624 350.079 448.768 347.247 456.048C344.415 463.329 359.364 457.624 359.364 457.624Z" stroke="#202429" stroke-width="1.20769" stroke-miterlimit="10"/>
<path d="M332.372 480.599H373.588" stroke="white" stroke-width="1.20769" stroke-miterlimit="10"/>
<path d="M464.175 463.351C464.175 463.351 453.447 462.431 449.222 457.624C449.222 457.624 429.819 471.855 425.205 474.276C425.205 474.276 419.658 477.958 422.142 483.793C430.104 484.24 464.039 483.908 464.039 483.908C464.039 483.908 463.859 467.638 464.175 463.351Z" fill="#202429"/>
<path d="M449.222 457.624C449.222 457.624 451.142 442.627 446.096 440.419C441.05 438.211 442.159 446.127 449.222 457.624Z" stroke="#202429" stroke-width="1.20769" stroke-miterlimit="10"/>
<path d="M449.222 457.624C449.222 457.624 439.937 448.768 437.105 456.048C434.273 463.329 449.222 457.624 449.222 457.624Z" stroke="#202429" stroke-width="1.20769" stroke-miterlimit="10"/>
<path d="M422.23 480.599H463.447" stroke="white" stroke-width="1.20769" stroke-miterlimit="10"/>
<path d="M421.741 69.458C421.944 70.1277 422.079 70.8162 422.144 71.5131C422.194 72.0168 422.104 72.5246 421.884 72.9804C421.655 73.4159 421.306 73.7764 420.878 74.019C420.306 74.3441 419.693 74.5919 419.056 74.7557C418.421 74.9504 417.765 75.0634 417.102 75.0919C416.611 75.1131 416.125 74.9876 415.707 74.7316C415.288 74.4524 414.952 74.0668 414.732 73.6145C414.421 72.9878 414.174 72.3309 413.996 71.654C413.791 70.9717 413.652 70.2714 413.581 69.5626C413.505 69.0725 413.584 68.5708 413.809 68.1284C414.033 67.6859 414.391 67.3251 414.831 67.0969C415.41 66.7722 416.028 66.5233 416.671 66.3562C417.299 66.1624 417.95 66.0515 418.607 66.0261C419.09 66.0096 419.568 66.1206 419.994 66.3482C420.428 66.6112 420.774 66.9982 420.986 67.4592C421.301 68.0998 421.554 68.7691 421.741 69.458ZM417.79 59.8709C417.846 60.0504 417.852 60.2417 417.808 60.4244C417.744 60.6238 417.62 60.7983 417.452 60.9236C417.212 61.112 416.948 61.267 416.667 61.3846C416.255 61.5603 415.831 61.7076 415.399 61.8254C414.969 61.9531 414.531 62.0507 414.088 62.1172C413.787 62.1643 413.481 62.171 413.179 62.1373C412.97 62.119 412.772 62.0359 412.613 61.8998C412.48 61.7672 412.385 61.602 412.337 61.4208L401.726 26.4521C401.621 26.1974 401.584 25.9202 401.617 25.6469C401.663 25.3783 401.795 25.1319 401.993 24.9445C402.268 24.6872 402.588 24.4825 402.937 24.3406C403.474 24.1141 404.025 23.9245 404.588 23.773C405.134 23.6096 405.693 23.4911 406.258 23.4187C406.633 23.3669 407.014 23.3798 407.384 23.457C407.646 23.5104 407.886 23.644 408.07 23.8394C408.241 24.0474 408.364 24.2908 408.43 24.552L417.79 59.8709Z" fill="#202429"/>
<path d="M293.446 44.0743V386.594C291.22 387.041 288.974 387.484 286.709 387.922C286.675 387.922 286.643 387.936 286.608 387.94C274.562 390.267 261.965 392.427 248.969 394.363C221.882 398.403 196.14 401.028 173.269 402.284C166.509 402.656 160 402.908 153.782 403.041C151.319 403.093 148.903 403.127 146.536 403.143V72.4047L293.446 44.0743Z" fill="#FEF7EF" stroke="#202429" stroke-width="1.20769" stroke-miterlimit="10"/>
<path d="M286.608 53.6171V387.947C274.562 390.273 261.965 392.433 248.969 394.369C221.882 398.409 196.14 401.034 173.268 402.29C166.509 402.662 160 402.914 153.782 403.047V79.7475L266.386 57.5944L286.608 53.6171Z" fill="#01519D" stroke="#202429" stroke-width="1.20769" stroke-miterlimit="10"/>
<path d="M286.709 52.5221V387.922C286.675 387.922 286.643 387.936 286.608 387.94C274.562 390.267 261.965 392.427 248.969 394.363C221.882 398.403 196.14 401.028 173.268 402.284V80.8365L266.386 57.5884L286.709 52.5221Z" fill="#FEF7EF" stroke="#202429" stroke-width="1.20769" stroke-miterlimit="10"/>
<path d="M146.544 72.6784L293.446 44.358L286.709 39.0663L139.807 67.3867L146.544 72.6784Z" fill="#FEF7EF" stroke="#202429" stroke-width="1.20769" stroke-miterlimit="10"/>
<path d="M146.542 72.6785V403.143C144.252 403.159 142.007 403.159 139.807 403.143V67.3848L146.542 72.6785Z" fill="#FEF7EF" stroke="#202429" stroke-width="1.20769" stroke-miterlimit="10"/>
<path d="M269.994 158.747L106.037 129.719L88.0674 231.215L252.024 260.243L269.994 158.747Z" fill="#202429"/>
<path d="M100.821 121.854L106.024 129.732L88.0497 231.228L82.8466 223.35L100.821 121.854Z" fill="#FEF7EF" stroke="#202429" stroke-width="1.20769" stroke-miterlimit="10"/>
<path d="M100.821 121.854L106.024 129.732L269.98 158.769L264.777 150.891L100.821 121.854Z" fill="#FEF7EF" stroke="#202429" stroke-width="1.20769" stroke-miterlimit="10"/>
<path d="M156.753 200.46C156.589 201.274 156.338 201.89 155.998 202.31C155.659 202.73 155.266 202.895 154.821 202.803L149.42 201.72L147.408 211.785C147.379 211.965 147.289 212.131 147.154 212.254C146.979 212.388 146.77 212.473 146.55 212.497C146.208 212.548 145.86 212.555 145.516 212.519C144.986 212.471 144.46 212.391 143.94 212.28C143.43 212.184 142.927 212.057 142.432 211.901C142.106 211.803 141.794 211.663 141.504 211.485C141.321 211.379 141.173 211.222 141.079 211.032C141.016 210.864 141.005 210.681 141.047 210.506L143.06 200.442L123.479 196.511C123.229 196.467 122.988 196.38 122.769 196.252C122.575 196.125 122.42 195.947 122.32 195.738C122.19 195.452 122.135 195.136 122.161 194.822C122.189 194.331 122.256 193.842 122.362 193.361C122.457 192.892 122.554 192.475 122.652 192.111C122.741 191.773 122.858 191.442 123 191.123C123.134 190.834 123.292 190.557 123.471 190.294C123.652 190.036 123.86 189.762 124.095 189.476L146.991 163.831C147.175 163.65 147.397 163.512 147.641 163.429C147.966 163.318 148.305 163.255 148.648 163.243C149.128 163.225 149.609 163.25 150.085 163.32C150.644 163.394 151.302 163.506 152.057 163.658C152.887 163.826 153.604 164.002 154.209 164.187C154.701 164.331 155.183 164.512 155.648 164.727C155.947 164.858 156.216 165.049 156.437 165.288C156.516 165.372 156.573 165.473 156.606 165.583C156.638 165.693 156.645 165.809 156.624 165.922L150.489 196.473L155.89 197.558C156.308 197.642 156.604 197.926 156.777 198.409C156.95 198.892 156.942 199.576 156.753 200.46ZM149.386 168.93L149.312 168.915L128.652 192.085L144.113 195.191L149.386 168.93Z" fill="#FEF7EF"/>
<path d="M196.796 197.65C196.146 201.029 195.179 204.338 193.908 207.535C192.718 210.453 191.232 212.868 189.452 214.782C187.744 216.647 185.575 218.029 183.163 218.789C180.748 219.55 177.952 219.611 174.776 218.972C171.769 218.368 169.343 217.323 167.5 215.836C165.647 214.341 164.252 212.354 163.474 210.104C162.634 207.768 162.255 205.023 162.337 201.871C162.419 198.719 162.855 195.171 163.647 191.228C164.298 187.855 165.271 184.552 166.552 181.365C167.759 178.438 169.245 176.017 171.01 174.102C172.708 172.234 174.872 170.849 177.28 170.091C179.695 169.33 182.478 169.267 185.629 169.902C188.663 170.51 191.101 171.557 192.944 173.044C194.796 174.54 196.19 176.526 196.969 178.776C197.808 181.112 198.187 183.857 198.107 187.009C198.026 190.161 197.589 193.708 196.796 197.65ZM190.198 196.787C190.677 194.393 191.022 192.231 191.231 190.3C191.43 188.579 191.514 186.848 191.482 185.117C191.466 183.76 191.285 182.41 190.945 181.097C190.666 180.03 190.196 179.023 189.558 178.124C188.966 177.307 188.203 176.628 187.322 176.135C186.351 175.608 185.303 175.236 184.216 175.032C182.122 174.611 180.321 174.762 178.816 175.485C177.31 176.209 176.008 177.359 174.909 178.935C173.81 180.509 172.893 182.428 172.157 184.692C171.379 187.116 170.742 189.583 170.249 192.081C169.53 195.657 169.105 198.733 168.973 201.31C168.842 203.886 169.017 206.045 169.5 207.785C169.985 209.529 170.778 210.881 171.88 211.841C172.981 212.8 174.42 213.461 176.195 213.823C177.437 214.099 178.722 214.122 179.973 213.89C181.088 213.666 182.139 213.201 183.055 212.527C184.017 211.805 184.851 210.925 185.521 209.925C186.288 208.788 186.943 207.579 187.477 206.316C188.089 204.871 188.599 203.385 189.005 201.869C189.445 200.258 189.843 198.567 190.198 196.797V196.787Z" fill="#FEF7EF"/>
<path d="M233.538 215.879C233.376 216.692 233.124 217.308 232.781 217.726C232.439 218.145 232.047 218.31 231.606 218.221L226.206 217.139L224.193 227.203C224.163 227.383 224.074 227.547 223.939 227.67C223.765 227.806 223.556 227.891 223.335 227.915C222.993 227.965 222.645 227.972 222.301 227.937C221.77 227.889 221.243 227.809 220.723 227.698C220.213 227.601 219.71 227.475 219.215 227.319C218.89 227.22 218.579 227.079 218.289 226.901C218.105 226.797 217.957 226.639 217.864 226.45C217.801 226.282 217.79 226.099 217.832 225.925L219.845 215.86L200.264 211.929C200.014 211.886 199.773 211.798 199.554 211.67C199.36 211.543 199.204 211.366 199.105 211.156C198.974 210.87 198.919 210.555 198.946 210.241C198.974 209.749 199.041 209.26 199.147 208.779C199.24 208.311 199.336 207.894 199.437 207.529C199.526 207.191 199.643 206.861 199.785 206.541C199.919 206.252 200.076 205.974 200.256 205.712C200.437 205.453 200.645 205.18 200.878 204.895L223.776 179.247C223.96 179.066 224.182 178.929 224.426 178.845C224.751 178.734 225.09 178.672 225.433 178.659C225.913 178.641 226.394 178.666 226.87 178.736C227.429 178.81 228.078 178.923 228.842 179.074C229.672 179.241 230.388 179.417 230.992 179.603C231.485 179.747 231.967 179.927 232.433 180.143C232.728 180.272 232.994 180.46 233.214 180.694C233.293 180.778 233.35 180.879 233.383 180.989C233.415 181.099 233.422 181.216 233.401 181.328L227.26 211.893L232.661 212.978C233.079 213.063 233.375 213.346 233.546 213.829C233.718 214.313 233.715 214.996 233.538 215.879ZM226.169 184.348L226.095 184.334L205.437 207.503L220.898 210.609L226.169 184.348Z" fill="#FEF7EF"/>
<path d="M100.821 121.854L208.253 56.7168L264.777 150.891L269.98 158.769L207.756 63.653L106.024 129.732L100.821 121.854Z" fill="white"/>
<path fill-rule="evenodd" clip-rule="evenodd" d="M208.459 55.886L264.741 149.657L270.484 158.436L270.486 158.438L269.477 159.102L264.266 151.213L263.718 150.299L207.58 64.4872L105.85 130.565L99.9712 121.663L208.459 55.886ZM247.673 123.567L208.048 57.5476L101.671 122.045L106.198 128.899L207.932 62.8187L247.673 123.567ZM269.159 484.027C269.159 483.693 269.43 483.423 269.763 483.423H411.669C412.002 483.423 412.273 483.693 412.273 484.027C412.273 484.36 412.002 484.63 411.669 484.63H269.763C269.43 484.63 269.159 484.36 269.159 484.027ZM418.249 484.027C418.249 483.693 418.519 483.423 418.853 483.423H473.664C473.997 483.423 474.268 483.693 474.268 484.027C474.268 484.36 473.997 484.63 473.664 484.63H418.853C418.519 484.63 418.249 484.36 418.249 484.027ZM479.682 484.027C479.682 483.693 479.952 483.423 480.286 483.423H513.336C513.67 483.423 513.94 483.693 513.94 484.027C513.94 484.36 513.67 484.63 513.336 484.63H480.286C479.952 484.63 479.682 484.36 479.682 484.027Z" fill="#202429"/>
</svg>
