<svg width="143" height="113" viewBox="0 0 143 113" fill="currentColor" xmlns="http://www.w3.org/2000/svg">
<path d="M125.565 35.5657H142.052C141.984 34.8293 141.877 34.1005 141.748 33.3793H125.565V35.5657Z" class="logo-line"/>
<path d="M80.4613 68.3302C79.8064 68.353 79.0449 68.3302 78.192 68.2847C77.8645 68.2999 77.5447 68.315 77.2172 68.3302C38.4487 69.8637 4.74421 58.135 5.10212 36.5071C5.42957 16.6631 31.1839 0.941334 70.4093 0.371979L71.0871 0C28.2901 0 0 15.403 0 38.1544C0 60.6705 28.2901 76.3164 71.0871 76.3164C89.607 76.3164 105.355 73.4165 117.288 68.3226L80.4613 68.3302ZM80.4613 68.3834V68.353C80.4993 68.3454 80.5298 68.3454 80.5298 68.3454L80.4613 68.3834Z" />
<path d="M87.7722 58.0593V64.1476H125.421C128.429 62.2953 131.072 60.2608 133.311 58.0593H87.7722Z" />
<path d="M80.4613 68.3834L80.5298 68.3454C80.5298 68.3454 80.4993 68.3454 80.4613 68.353V68.3834Z" />
<path d="M29.7828 32.2941H24.0334V25.6592H18.6419V43.7571H24.0334V36.5908H29.7828V43.7571H35.1819V25.6592H29.7828V32.2941Z" />
<path d="M40.5734 35.1559C40.5734 38.739 39.8499 39.817 36.979 39.278V43.7569C40.0327 44.2959 42.7284 43.7569 44.1677 41.9654C45.6069 40.3484 45.7897 37.4864 45.7897 35.1559V29.9634H49.2013V43.7645H54.4176V25.659H40.5734V35.1559Z" />
<path d="M70.4169 25.659L67.3556 36.4085L64.3019 25.659H58.9104L56.3898 43.7569H61.4234L62.6799 34.0779L65.5584 43.7569H69.1528L72.0313 34.0779L73.2878 43.7569H78.3214L75.8084 25.659H70.4169Z" />
<path d="M96.8415 25.659H90.9094L85.693 33.0075V25.659H80.3015V43.7569H85.693V36.4085L90.5438 43.7569H97.0167L90.0108 34.6169L96.8415 25.659Z" />
<path d="M12.42 91.5449H13.7755V95.1812L16.814 91.5449H18.4436L15.2757 95.1205L18.6416 99.2198H16.9282L13.7831 95.2647V99.2198H12.4277V91.5449H12.42Z" />
<path d="M25.008 91.4237C27.2925 91.4237 29.0212 92.9875 29.0212 95.3788C29.0212 97.679 27.2925 99.3339 25.008 99.3339C22.7235 99.3339 21.0025 97.7701 21.0025 95.3788C21.0101 93.1545 22.6473 91.4237 25.008 91.4237ZM25.008 98.0814C26.6224 98.0814 27.5895 96.8971 27.5895 95.3864C27.5895 93.7998 26.4549 92.6915 25.008 92.6915C23.5307 92.6915 22.4341 93.7998 22.4341 95.3864C22.4417 96.9123 23.5688 98.0814 25.008 98.0814Z" />
<path d="M32.7828 99.2198V91.5449C33.2092 91.5449 34.4352 91.5221 34.9683 91.5221C37.2376 91.5221 37.9458 92.7291 37.9458 93.9893C37.9458 95.295 36.9635 96.4793 35.1282 96.4793C34.8998 96.4793 34.4581 96.4793 34.1306 96.4489V99.2198H32.7828ZM34.1383 92.805V95.1584C34.4581 95.1887 34.7855 95.2115 35.0978 95.2115C35.8973 95.2115 36.5294 94.8244 36.5294 93.9741C36.5294 93.177 36.0344 92.7823 35.113 92.7823C34.8312 92.7823 34.4962 92.7899 34.1383 92.805Z" />
<path d="M46.4978 92.8051H43.0634V99.2198H41.7079V91.5449H47.8456V99.2198H46.4902V92.8051H46.4978Z" />
<path d="M55.6056 91.4237C57.8902 91.4237 59.6188 92.9875 59.6188 95.3788C59.6188 97.679 57.8902 99.3339 55.6056 99.3339C53.3211 99.3339 51.6001 97.7701 51.6001 95.3788C51.6077 93.1545 53.2449 91.4237 55.6056 91.4237ZM55.6056 98.0814C57.22 98.0814 58.1872 96.8971 58.1872 95.3864C58.1872 93.7998 57.0525 92.6915 55.6056 92.6915C54.1283 92.6915 53.0317 93.7998 53.0317 95.3864C53.0393 96.9123 54.1664 98.0814 55.6056 98.0814Z" />
<path d="M63.3806 99.2198V91.5449C63.8071 91.5449 65.0331 91.5221 65.5662 91.5221C67.8279 91.5221 68.5437 92.7291 68.5437 93.9893C68.5437 95.295 67.5613 96.4793 65.7261 96.4793C65.4976 96.4793 65.056 96.4793 64.7285 96.4489V99.2198H63.3806ZM64.7361 92.805V95.1584C65.056 95.1887 65.3834 95.2115 65.6956 95.2115C66.4952 95.2115 67.1273 94.8244 67.1273 93.9741C67.1273 93.177 66.6323 92.7823 65.7109 92.7823C65.4291 92.7823 65.094 92.7899 64.7361 92.805Z" />
<path d="M73.8661 91.5221H75.054L78.3057 99.2198H76.8665L76.0669 97.2612H72.7771L71.9775 99.2198H70.6144L73.8661 91.5221ZM73.295 95.9934H75.549L74.4296 93.2605L73.295 95.9934Z" />
<path d="M86.3704 91.5449V92.8051H83.8727V99.2198H82.5172V92.8051H80.0194V91.5449H86.3704Z" />
<path d="M89.7442 99.2198V91.5449H91.0997V97.0031L95.1358 91.5449H96.3237V99.2198H94.9682V93.7692L90.9322 99.2198H89.7442Z" />
<path d="M100.649 91.5676C101.075 91.5449 102.103 91.5145 102.872 91.5145C104.708 91.5145 105.401 92.3495 105.401 93.4123C105.401 94.2929 104.959 94.8471 104.304 95.1584V95.1811C105.066 95.3709 105.659 95.9479 105.659 96.9651C105.659 98.5441 104.426 99.2653 102.804 99.2653C102.103 99.2653 101.113 99.2425 100.656 99.2122V91.5676H100.649ZM102.004 92.805V94.7484H102.918C103.542 94.7484 104.06 94.4296 104.06 93.7312C104.06 93.1087 103.573 92.7747 102.85 92.7747C102.545 92.7747 102.248 92.7822 102.004 92.805ZM102.004 97.9444C102.195 97.9672 102.507 97.9975 102.895 97.9975C103.809 97.9975 104.304 97.6104 104.304 96.8892C104.304 96.2439 103.809 95.9099 102.964 95.9099H102.004V97.9444Z" />
<path d="M114.508 95.9403H110.99V99.2198H109.634V91.5449H110.99V94.6802H114.508V91.5449H115.848V99.2198H114.508V95.9403Z" />
<path d="M121.529 94.1715C121.872 94.126 122.169 94.1184 122.39 94.1184C124.294 94.1184 125.208 95.0901 125.208 96.5932C125.208 98.2177 124.065 99.235 122.093 99.235C121.37 99.235 120.631 99.2122 120.182 99.2122V91.5373H121.537V94.1715H121.529ZM121.529 95.4317V97.9445C121.773 97.952 121.994 97.9748 122.253 97.9748C123.243 97.9748 123.768 97.5269 123.768 96.6236C123.768 95.8037 123.22 95.371 122.276 95.371C122.07 95.3786 121.842 95.4013 121.529 95.4317ZM126.205 91.5449H127.545V99.2198H126.205V91.5449Z" />
<path d="M131.878 99.2197V91.5448H133.234V97.003L137.27 91.5448H138.458V99.2197H137.102V93.7691L133.066 99.2197H131.878ZM134.361 89.6773C134.452 90.1024 134.749 90.315 135.298 90.315C135.793 90.315 136.135 90.148 136.173 89.6773H137.437C137.407 90.6186 136.501 91.2487 135.29 91.2487C133.973 91.2487 133.165 90.6111 133.089 89.6773H134.361Z" />
<path d="M16.1136 110.584C15.5882 111.753 14.9789 112.368 14.0271 112.368C13.6311 112.368 13.1818 112.224 12.9686 112.065L13.4407 110.926C13.6463 111.07 13.791 111.116 14.0118 111.116C14.3773 111.116 14.6134 110.911 14.7733 110.577L14.8799 110.311L11.4836 104.701H13.0142L15.5348 108.99L17.3701 104.701H18.7332L16.1136 110.584Z" />
<path d="M27.0025 109.089H23.4843V112.368H22.1289V104.693H23.4843V107.829H27.0025V104.693H28.3428V112.368H27.0025V109.089Z" />
<path d="M32.676 112.368V104.693H34.0315V110.151L38.0675 104.693H39.2554V112.368H37.8999V106.918L33.8639 112.368H32.676Z" />
<path d="M43.5812 104.716C44.0077 104.693 45.0357 104.663 45.8049 104.663C47.6401 104.663 48.3331 105.498 48.3331 106.561C48.3331 107.441 47.8914 107.995 47.2365 108.307V108.329C47.998 108.519 48.592 109.096 48.592 110.113C48.592 111.692 47.3583 112.414 45.7363 112.414C45.0357 112.414 44.0458 112.391 43.5889 112.361V104.716H43.5812ZM44.9291 105.953V107.897H45.8429C46.4674 107.897 46.9852 107.578 46.9852 106.88C46.9852 106.257 46.4978 105.923 45.7744 105.923C45.4698 105.923 45.1728 105.938 44.9291 105.953ZM44.9291 111.1C45.1195 111.123 45.4317 111.153 45.8201 111.153C46.7339 111.153 47.2289 110.766 47.2289 110.045C47.2289 109.4 46.7339 109.066 45.8886 109.066H44.9291V111.1Z" />
<path d="M52.5599 104.693H57.0147V105.953H53.9154V107.859H56.6873V109.119H53.9154V111.1H57.1289V112.361H52.5675V104.693H52.5599Z" />
<path d="M61.0801 112.368V104.693C61.5066 104.693 62.7326 104.67 63.2656 104.67C65.535 104.67 66.2432 105.877 66.2432 107.138C66.2432 108.443 65.2608 109.628 63.4256 109.628C63.1971 109.628 62.7554 109.628 62.428 109.597V112.368H61.0801ZM62.4356 105.953V108.307C62.7554 108.337 63.0829 108.36 63.3951 108.36C64.1947 108.36 64.8267 107.973 64.8267 107.122C64.8267 106.325 64.3318 105.931 63.4103 105.931C63.1286 105.938 62.7935 105.946 62.4356 105.953Z" />
<path d="M75.8166 111.624C75.3292 112.14 74.3545 112.489 73.3569 112.489C71.0038 112.489 69.3894 110.926 69.3894 108.534C69.3894 106.333 70.783 104.579 73.3264 104.579C74.324 104.579 75.1617 104.898 75.6719 105.361L75.0703 106.356C74.6058 106.052 74.1032 105.839 73.334 105.839C71.9024 105.839 70.8287 106.872 70.8287 108.534C70.8287 110.136 71.9176 111.229 73.4863 111.229C74.1336 111.229 74.7809 111.024 75.314 110.614L75.8166 111.624Z" />
<path d="M79.3567 112.368V104.693H80.7121V110.151L84.7482 104.693H85.9361V112.368H84.5806V106.918L80.5446 112.368H79.3567Z" />
<path d="M95.6458 104.693V105.953H93.148V112.368H91.7926V105.953H89.2948V104.693H95.6458Z" />
<path d="M99.0264 104.693H103.481V105.953H100.382V107.859H103.154V109.119H100.382V111.1H103.596V112.361H99.0341V104.693H99.0264Z" />
<path d="M112.932 104.693V105.953H110.434V112.368H109.078V105.953H106.581V104.693H112.932Z" />
<path d="M99.8721 50.3692V55.3643H135.785C137.095 53.7701 138.207 52.1 139.128 50.3692H99.8721Z" />
<path d="M110.739 43.6888V47.6742H140.377C140.887 46.3761 141.291 45.0476 141.588 43.6888H110.739Z" />
<path d="M118.46 38.2533V41.0014H142.022C142.121 40.098 142.166 39.1795 142.174 38.2533H118.46Z"/>
</svg>
