<svg width="91" height="60" viewBox="0 0 91 60" fill="currentColor" xmlns="http://www.w3.org/2000/svg">
<path d="M76.6688 21.5111H86.483C86.4417 21.0666 86.381 20.6305 86.301 20.1972H76.6688V21.5111Z" class="logo-line"/>
<path d="M3.94609 59.4139C3.64827 59.7334 3.04988 59.95 2.43494 59.95C0.992727 59.95 0 58.9778 0 57.4972C0 56.1306 0.857606 55.0445 2.41564 55.0445C3.03058 55.0445 3.54073 55.2417 3.85233 55.5278L3.48006 56.1473C3.19603 55.9584 2.88718 55.8278 2.41564 55.8278C1.53873 55.8278 0.876909 56.4667 0.876909 57.5C0.876909 58.4917 1.54424 59.1723 2.50939 59.1723C2.90649 59.1723 3.30633 59.0445 3.62897 58.7917L3.94609 59.4139Z"/>
<path d="M7.18346 55.0445C8.58707 55.0445 9.64598 56.0167 9.64598 57.4972C9.64598 58.925 8.58707 59.95 7.18346 59.95C5.77986 59.95 4.72922 58.9778 4.72922 57.4972C4.72922 56.1167 5.73298 55.0445 7.18346 55.0445ZM7.18346 59.1695C8.17619 59.1695 8.76907 58.4361 8.76907 57.4972C8.76907 56.5111 8.07416 55.825 7.18346 55.825C6.27898 55.825 5.60613 56.5111 5.60613 57.4972C5.60613 58.4473 6.30104 59.1695 7.18346 59.1695Z"/>
<path d="M11.1103 59.8751V55.1195C11.3723 55.1195 12.4119 55.1056 12.547 55.1056C13.8348 55.1056 14.2594 55.7501 14.2594 56.5723C14.2594 57.389 13.741 57.7945 13.3494 57.9306L14.8275 59.8751H13.8237L12.5222 58.0945H11.9431V59.8751H11.1103ZM11.9403 55.9001V57.314H12.4808C12.9606 57.314 13.3853 57.0695 13.3853 56.5806C13.3853 56.2084 13.184 55.8862 12.5084 55.8862C12.3512 55.8862 12.1637 55.8945 11.9403 55.9001Z"/>
<path d="M16.0574 59.8751V55.1195C16.3193 55.1195 17.0694 55.1056 17.4003 55.1056C18.7901 55.1056 19.2286 55.8529 19.2286 56.6334C19.2286 57.4418 18.6274 58.1751 17.5023 58.1751C17.3617 58.1751 17.0915 58.1751 16.8874 58.1556V59.8751H16.0574ZM16.8846 55.9001V57.3612C17.0804 57.3806 17.2817 57.3945 17.472 57.3945C17.9656 57.3945 18.3489 57.1556 18.3489 56.6279C18.3489 56.1306 18.0456 55.8862 17.4775 55.8862C17.3121 55.8862 17.108 55.8945 16.8846 55.9001Z"/>
<path d="M22.7003 55.0445C24.1039 55.0445 25.1628 56.0167 25.1628 57.4972C25.1628 58.925 24.1039 59.95 22.7003 59.95C21.2967 59.95 20.2461 58.9778 20.2461 57.4972C20.2461 56.1167 21.2498 55.0445 22.7003 55.0445ZM22.7003 59.1695C23.6931 59.1695 24.2859 58.4361 24.2859 57.4972C24.2859 56.5111 23.591 55.825 22.7003 55.825C21.7958 55.825 21.123 56.5111 21.123 57.4972C21.123 58.4473 21.8179 59.1695 22.7003 59.1695Z"/>
<path d="M26.6272 59.8751V55.1195C26.8891 55.1195 27.9288 55.1056 28.0639 55.1056C29.3517 55.1056 29.7763 55.7501 29.7763 56.5723C29.7763 57.389 29.2579 57.7945 28.8663 57.9306L30.3444 59.8751H29.3406L28.0391 58.0945H27.46V59.8751H26.6272ZM27.4572 55.9001V57.314H27.9977C28.4775 57.314 28.9022 57.0695 28.9022 56.5806C28.9022 56.2084 28.7009 55.8862 28.0253 55.8862C27.8681 55.8862 27.6806 55.8945 27.4572 55.9001Z"/>
<path d="M32.9227 55.1056H33.6507L35.6472 59.8751H34.7647L34.2711 58.6584H32.2553L31.7617 59.8751H30.9262L32.9227 55.1056ZM32.5725 57.8779H33.954L33.2646 56.1862L32.5725 57.8779Z"/>
<path d="M35.8567 55.1195H39.7476V55.9H38.2172V59.875H37.3872V55.9H35.8567V55.1195Z"/>
<path d="M40.9776 55.1195H43.7104V55.9H41.8076V57.0834H43.5063V57.8639H41.8076V59.0945H43.7765V59.875H40.9776V55.1195Z"/>
<path d="M51.1171 57.9056C51.1171 59.3584 50.2347 59.95 49.242 59.95C48.0672 59.95 47.2317 59.25 47.2317 57.8584V55.1195H48.0617V57.6806C48.0617 58.5695 48.4257 59.1695 49.242 59.1695C49.9562 59.1695 50.2954 58.6611 50.2954 57.7361V55.1195H51.1171V57.9056Z"/>
<path d="M56.2435 59.875L53.6459 56.5806V59.875H52.871V55.1195H53.5328L56.1305 58.4278V55.1195H56.9053V59.875H56.2435Z"/>
<path d="M58.8219 55.1195H59.6519V59.875H58.8219V55.1195Z"/>
<path d="M63.4628 59.8889H62.8368L60.8927 55.1195H61.7752L63.1788 58.6472L64.5217 55.1195H65.3517L63.4628 59.8889Z"/>
<path d="M66.4989 55.1195H69.2317V55.9H67.3289V57.0834H69.0276V57.8639H67.3289V59.0945H69.2979V59.875H66.4989V55.1195Z"/>
<path d="M70.8834 59.8751V55.1195C71.1454 55.1195 72.185 55.1056 72.3201 55.1056C73.6079 55.1056 74.0326 55.7501 74.0326 56.5723C74.0326 57.389 73.5142 57.7945 73.1226 57.9306L74.6007 59.8751H73.5969L72.2953 58.0945H71.7162V59.8751H70.8834ZM71.7135 55.9001V57.314H72.254C72.7338 57.314 73.1584 57.0695 73.1584 56.5806C73.1584 56.2084 72.9571 55.8862 72.2815 55.8862C72.1244 55.8862 71.9368 55.8945 71.7135 55.9001Z"/>
<path d="M75.5852 56.3556C75.5852 55.6417 76.1367 55.0445 77.0549 55.0445C77.634 55.0445 78.1194 55.2417 78.4034 55.5528L77.9594 56.1778C77.7305 55.9528 77.5017 55.825 77.1239 55.825C76.713 55.825 76.4621 56.0361 76.4621 56.3473C76.4621 57.3334 78.5992 57.0195 78.5992 58.6028C78.5992 59.4056 77.9043 59.9473 77.0218 59.9473C76.4152 59.9473 75.7065 59.6834 75.4776 59.2L75.9492 58.6306C76.2249 58.9917 76.6716 59.1667 77.0356 59.1667C77.4272 59.1667 77.7223 58.9695 77.7223 58.6084C77.725 57.6723 75.5852 57.9056 75.5852 56.3556Z"/>
<path d="M80.1655 55.1195H80.9955V59.875H80.1655V55.1195Z"/>
<path d="M82.3247 55.1195H86.2156V55.9H84.6852V59.875H83.8551V55.9H82.3247V55.1195Z"/>
<path d="M89.3206 57.8917V59.875H88.4906V57.8917L86.825 55.1195H87.7681L88.9428 57.1111L90.1038 55.1195H91L89.3206 57.8917Z"/>
<path d="M54.1671 35.0418V38.7056H76.5835C78.3759 37.5918 79.9449 36.3668 81.2769 35.0418H54.1671Z"/>
<path d="M61.3698 30.4167V33.4222H82.7493C83.5297 32.4639 84.1943 31.4583 84.7403 30.4167H61.3698Z"/>
<path d="M67.8391 26.3973V28.7973H85.4848C85.7909 28.0167 86.028 27.2167 86.2045 26.3973H67.8391Z"/>
<path d="M72.4387 23.1278V24.7806H86.4693C86.5272 24.2362 86.5575 23.6862 86.5603 23.1278H72.4387Z"/>
<path d="M47.2124 26.5584V15.3195H50.6125V19.814L53.8003 15.3195H57.625L53.2681 20.7779L57.7298 26.5584H53.5852L50.6098 21.9557V26.5584H47.2124ZM32.3353 26.5584L34.0367 15.3195H37.2245L39.243 21.9557L41.1568 15.3195H44.4521L46.046 26.5584H42.8582L42.1137 20.4584L40.3074 26.5584H38.1814L36.3751 20.4584L35.5258 26.5584H32.3353ZM25.2152 26.5584V15.3195H28.5105V23.8834H31.0613V26.5584H25.2152ZM12.7841 26.5584V15.3195H16.1842L20.1165 21.6334V15.3195H23.3042V26.5584H19.9014L15.9718 20.1362V26.5584H12.7841Z"/>
<path d="M44.5845 41.2139C24.6059 41.2139 4.73756 35.0861 4.94989 22.075C5.14293 10.1361 20.4806 0.677811 43.8317 0.338922L44.2343 0.113922C18.7571 0.113922 1.91105 9.38059 1.91105 23.0695C1.91105 36.6139 18.7543 46.025 44.2343 46.025C55.2619 46.025 64.6376 44.2806 71.7384 41.2167C71.7411 41.2167 47.298 41.2139 44.5845 41.2139Z"/>
</svg>
