<svg aria-hidden="true" style="position: absolute; width: 0; height: 0; overflow: hidden;" version="1.1"
     xmlns="http://www.w3.org/2000/svg">
    <defs>
        <symbol id="icon-class" viewBox="0 0 17 17" fill="none" xmlns="http://www.w3.org/2000/svg">
            <path d="M7.62035 12.3698C9.33218 11.2626 10.4576 9.70165 10.4576 7.83212C10.4576 7.83212 10.4576 7.16961 10.4576 6.92457C10.4576 6.64323 10.8927 5.50881 10.8927 4.23825C10.8927 0.680678 7.62035 0.571773 7.62035 1.47932V2.38686C7.62035 4.41068 4.47095 6.92457 3.56302 6.92457C3.01448 6.92457 1 6.92457 1 6.92457V15.0925H3.83729C5.14245 15.0925 4.8398 16 6.67458 16C7.04343 16 13.6732 16 13.6732 16C14.3164 16 15.054 15.3012 15.054 14.6841L15.9714 9.30233C16.1795 8.11345 15.2243 6.92457 13.9664 6.92457H12.3492" stroke="currentColor" stroke-width="2"/>
        </symbol>
        <svg id="icon-eye" viewBox="0 0 19 15" fill="none" xmlns="http://www.w3.org/2000/svg">
            <path d="M1 7.07143L0.0715224 6.70004C-0.0238408 6.93845 -0.0238408 7.20441 0.0715224 7.44282L1 7.07143ZM18 7.07143L18.9285 7.44282C19.0238 7.20441 19.0238 6.93845 18.9285 6.70004L18 7.07143ZM9.49998 12.1429C6.83625 12.1429 4.96152 10.8215 3.7165 9.43818C3.09329 8.74572 2.6406 8.04987 2.34435 7.52708C2.19679 7.26667 2.0896 7.05197 2.02074 6.90589C1.98634 6.83293 1.96162 6.77734 1.94631 6.74201C1.93866 6.72435 1.93337 6.71178 1.93041 6.70466C1.92892 6.7011 1.92803 6.6989 1.92771 6.69811C1.92755 6.69772 1.92753 6.69768 1.92766 6.698C1.92772 6.69816 1.92782 6.69841 1.92796 6.69875C1.92803 6.69892 1.92816 6.69924 1.92819 6.69933C1.92833 6.69967 1.92848 6.70004 1 7.07143C0.0715224 7.44282 0.0716882 7.44323 0.0718637 7.44367C0.0719346 7.44385 0.07212 7.44431 0.0722622 7.44466C0.0725471 7.44537 0.0728703 7.44617 0.0732317 7.44707C0.0739546 7.44886 0.0748309 7.45102 0.0758613 7.45354C0.0779219 7.4586 0.0805991 7.46511 0.0838979 7.47304C0.0904948 7.48889 0.0995819 7.51041 0.111199 7.53722C0.134428 7.59082 0.167814 7.66567 0.211683 7.75873C0.299347 7.94468 0.429323 8.20431 0.604304 8.5131C0.953141 9.1287 1.48705 9.95071 2.22991 10.7761C3.71702 12.4285 6.09229 14.1429 9.49998 14.1429V12.1429ZM1 7.07143C1.92848 7.44282 1.92833 7.44319 1.92819 7.44353C1.92816 7.44361 1.92803 7.44394 1.92796 7.44411C1.92782 7.44445 1.92772 7.4447 1.92766 7.44486C1.92753 7.44517 1.92755 7.44514 1.92771 7.44474C1.92803 7.44396 1.92892 7.44176 1.93041 7.4382C1.93337 7.43108 1.93866 7.41851 1.94631 7.40085C1.96162 7.36552 1.98634 7.30992 2.02074 7.23696C2.0896 7.09089 2.19679 6.87618 2.34435 6.61578C2.6406 6.09298 3.09329 5.39714 3.7165 4.70468C4.96152 3.32132 6.83625 2 9.49998 2V0C6.09229 0 3.71702 1.7144 2.22991 3.36675C1.48705 4.19215 0.953141 5.01416 0.604304 5.62976C0.429323 5.93855 0.299347 6.19817 0.211683 6.38413C0.167814 6.47719 0.134428 6.55203 0.111199 6.60564C0.0995819 6.63245 0.0904948 6.65397 0.0838979 6.66982C0.0805991 6.67775 0.0779219 6.68426 0.0758613 6.68931C0.0748309 6.69184 0.0739546 6.694 0.0732317 6.69579C0.0728703 6.69668 0.0725471 6.69749 0.0722622 6.6982C0.07212 6.69855 0.0719346 6.69901 0.0718637 6.69919C0.0716882 6.69963 0.0715224 6.70004 1 7.07143ZM9.49998 2C12.1637 2 14.0385 3.32132 15.2835 4.70468C15.9067 5.39714 16.3594 6.09299 16.6556 6.61578C16.8032 6.87619 16.9104 7.09089 16.9793 7.23697C17.0137 7.30993 17.0384 7.36552 17.0537 7.40085C17.0613 7.41851 17.0666 7.43108 17.0696 7.43821C17.0711 7.44177 17.072 7.44396 17.0723 7.44475C17.0725 7.44514 17.0725 7.44518 17.0723 7.44486C17.0723 7.4447 17.0722 7.44445 17.072 7.44411C17.072 7.44394 17.0718 7.44362 17.0718 7.44354C17.0717 7.44319 17.0715 7.44282 18 7.07143C18.9285 6.70004 18.9283 6.69962 18.9281 6.69918C18.9281 6.69901 18.9279 6.69854 18.9277 6.69819C18.9275 6.69748 18.9271 6.69668 18.9268 6.69579C18.926 6.69399 18.9252 6.69183 18.9241 6.68931C18.9221 6.68426 18.9194 6.67774 18.9161 6.66982C18.9095 6.65396 18.9004 6.63244 18.8888 6.60563C18.8656 6.55203 18.8322 6.47718 18.7883 6.38413C18.7006 6.19817 18.5707 5.93855 18.3957 5.62975C18.0468 5.01416 17.5129 4.19215 16.7701 3.36675C15.2829 1.7144 12.9077 0 9.49998 0V2ZM18 7.07143C17.0715 6.70004 17.0717 6.69967 17.0718 6.69932C17.0718 6.69924 17.072 6.69891 17.072 6.69874C17.0722 6.69841 17.0723 6.69816 17.0723 6.698C17.0725 6.69768 17.0725 6.69772 17.0723 6.69811C17.072 6.69889 17.0711 6.70109 17.0696 6.70465C17.0666 6.71177 17.0613 6.72435 17.0537 6.742C17.0384 6.77734 17.0137 6.83293 16.9793 6.90589C16.9104 7.05197 16.8032 7.26667 16.6556 7.52707C16.3594 8.04987 15.9067 8.74572 15.2835 9.43818C14.0385 10.8215 12.1637 12.1429 9.49998 12.1429V14.1429C12.9077 14.1429 15.2829 12.4285 16.7701 10.7761C17.5129 9.95071 18.0468 9.1287 18.3957 8.5131C18.5707 8.20431 18.7006 7.94469 18.7883 7.75873C18.8322 7.66568 18.8656 7.59083 18.8888 7.53722C18.9004 7.51041 18.9095 7.48889 18.9161 7.47304C18.9194 7.46511 18.9221 7.4586 18.9241 7.45355C18.9252 7.45102 18.926 7.44886 18.9268 7.44707C18.9271 7.44618 18.9275 7.44538 18.9277 7.44467C18.9279 7.44431 18.9281 7.44385 18.9281 7.44367C18.9283 7.44324 18.9285 7.44282 18 7.07143ZM9.5 8.5C8.71102 8.5 8.07143 7.86041 8.07143 7.07143H6.07143C6.07143 8.96498 7.60645 10.5 9.5 10.5V8.5ZM10.9286 7.07143C10.9286 7.86041 10.289 8.5 9.5 8.5V10.5C11.3935 10.5 12.9286 8.96498 12.9286 7.07143H10.9286ZM9.5 5.64286C10.289 5.64286 10.9286 6.28245 10.9286 7.07143H12.9286C12.9286 5.17788 11.3935 3.64286 9.5 3.64286V5.64286ZM9.5 3.64286C7.60645 3.64286 6.07143 5.17788 6.07143 7.07143H8.07143C8.07143 6.28245 8.71102 5.64286 9.5 5.64286V3.64286Z" fill="currentColor"/>
        </svg>
    </defs>
</svg>
