<svg width="48" height="15" viewBox="0 0 48 15" fill="currentColor" xmlns="http://www.w3.org/2000/svg">
<path d="M0.697998 2.89352H2.54275V8.15973C2.54275 9.39815 3.55325 10.3819 4.70475 10.3819C5.915 10.3819 6.96075 9.38658 6.96075 8.15973V2.89352H8.8055V12.0023H7.47775L7.0665 11.088C6.8785 11.2732 6.67875 11.4468 6.432 11.5972C5.99725 11.8634 5.3275 12.1065 4.39925 12.1065C2.343 12.1065 0.697998 10.4861 0.697998 8.15973V2.89352Z"/>
<path d="M11.6707 2.89323H13.1747L13.5859 3.80758C13.7739 3.6224 13.9737 3.44879 14.2204 3.29832C14.6552 3.05527 15.3249 2.78906 16.2531 2.78906C18.7206 2.78906 20.6711 4.71036 20.6711 7.44184C20.6711 10.1733 18.7206 12.0946 16.2531 12.0946C15.3719 12.0946 14.7492 11.8516 14.3262 11.5854C14.0794 11.4465 13.8797 11.2613 13.6917 11.0761V14.9766H11.6707V2.89323ZM18.8146 7.45342C18.8146 5.72888 17.5574 4.5136 16.1474 4.5136C14.7374 4.5136 13.4802 5.72888 13.4802 7.45342C13.4802 9.17795 14.7374 10.3932 16.1474 10.3932C17.5574 10.3932 18.8146 9.17795 18.8146 7.45342Z"/>
<path d="M23.07 0H24.9147V12.0139H23.07V0Z"/>
<path d="M34.3853 11.0995C34.1973 11.2847 33.9975 11.4583 33.7507 11.6088C33.316 11.875 32.6462 12.118 31.718 12.118C29.2505 12.118 27.3 10.1967 27.3 7.46523C27.3 4.73375 29.2505 2.81246 31.718 2.81246C32.6462 2.81246 33.316 3.07866 33.7507 3.32172C33.9975 3.4606 34.1973 3.64579 34.3853 3.83097L34.7965 2.91662H36.136V12.0254H34.7965L34.3853 11.0995ZM34.491 7.45366C34.491 5.72912 33.2338 4.51384 31.8237 4.51384C30.402 4.51384 29.1565 5.72912 29.1565 7.45366C29.1565 9.1782 30.4137 10.3935 31.8237 10.3935C33.2338 10.3935 34.491 9.1782 34.491 7.45366Z"/>
<path d="M40.7067 0V3.80787C40.8947 3.62269 41.0945 3.44907 41.3412 3.29861C41.776 3.05556 42.387 2.78935 43.2682 2.78935C45.7357 2.78935 47.6862 4.71065 47.6862 7.44213C47.6862 10.1736 45.7357 12.0949 43.2682 12.0949C42.34 12.0949 41.6702 11.8519 41.2355 11.5856C40.9887 11.4468 40.789 11.2616 40.601 11.0764L40.1897 11.9907H38.8502V0H40.7067ZM45.8532 7.4537C45.8532 5.72917 44.596 4.51389 43.186 4.51389C41.7642 4.51389 40.5187 5.72917 40.5187 7.4537C40.5187 9.17824 41.776 10.3935 43.186 10.3935C44.596 10.3935 45.8532 9.17824 45.8532 7.4537Z"/>
</svg>
