<svg width="72" height="72" viewBox="0 0 72 72" fill="none" xmlns="http://www.w3.org/2000/svg">
<path d="M36.0017 31.9687C39.8485 31.969 43.7064 32.3732 47.4661 33.1711L48.6737 33.4274V32.1929V23.5463C48.6737 16.6325 42.9758 11.0332 35.9999 11.0333C29.024 11.0333 23.3266 16.6326 23.3266 23.5463V32.1919V33.4258L24.5337 33.1703C28.2998 32.3729 32.1569 31.9687 36.0017 31.9687ZM36.0017 31.9687L36.0018 30.9687L36.0017 31.9687ZM19.2093 23.5466C19.2093 14.4365 26.7297 7 36.0003 7C45.2708 7 52.7907 14.4365 52.7912 23.5463V33.5675C52.7912 33.9507 52.984 34.2433 53.0733 34.3636C53.1665 34.4892 53.3839 34.7453 53.733 34.8601C54.6839 35.1731 55.4502 35.4421 56.1479 35.7073C56.6137 35.8845 57 36.4452 57 36.9416V59.9678C57 60.4595 56.6157 61.0241 56.1498 61.2062C49.7081 63.7237 42.9299 65 36.0002 65C29.0703 65 22.2921 63.724 15.8507 61.2065C15.3844 61.0242 15 60.4593 15 59.9678V36.9416C15 36.4451 15.3864 35.8846 15.8517 35.7077C16.5491 35.4425 17.3155 35.1734 18.2674 34.8603C18.616 34.7457 18.8334 34.4903 18.9269 34.3644C19.0164 34.2439 19.2093 33.9512 19.2093 33.5679V23.5466ZM35.9999 38.1757C32.7851 38.1757 30.1545 40.7476 30.1545 43.9546C30.1545 45.8939 31.154 47.5202 32.5772 48.5426V55.9018C32.5772 57.7879 34.1214 59.2912 35.9998 59.2912C37.8781 59.2912 39.4225 57.7879 39.4225 55.9018V48.5426C40.8458 47.5202 41.8452 45.8939 41.8452 43.9546C41.8452 40.7474 39.2146 38.1757 35.9999 38.1757Z" stroke="currentColor" stroke-width="2"/>
</svg>
