<svg viewBox="0 0 17 17" fill="none" xmlns="http://www.w3.org/2000/svg">
<path d="M7.62035 12.3698C9.33218 11.2626 10.4576 9.70165 10.4576 7.83212C10.4576 7.83212 10.4576 7.16961 10.4576 6.92457C10.4576 6.64323 10.8927 5.50881 10.8927 4.23825C10.8927 0.680678 7.62035 0.571773 7.62035 1.47932V2.38686C7.62035 4.41068 4.47095 6.92457 3.56302 6.92457C3.01448 6.92457 1 6.92457 1 6.92457V15.0925H3.83729C5.14245 15.0925 4.8398 16 6.67458 16C7.04343 16 13.6732 16 13.6732 16C14.3164 16 15.054 15.3012 15.054 14.6841L15.9714 9.30233C16.1795 8.11345 15.2243 6.92457 13.9664 6.92457H12.3492" stroke="currentColor" stroke-width="2"/>
</svg>
