<svg viewBox="0 0 48 50" fill="none" xmlns="http://www.w3.org/2000/svg">
<path d="M11.5599 1.5H41V49H1V11.1L11.5599 1.5Z" stroke="#01519D" stroke-width="2" stroke-miterlimit="10"/>
<path d="M14 1.5V12.5H6" stroke="#01519D" stroke-width="2" stroke-miterlimit="10"/>
<path fill-rule="evenodd" clip-rule="evenodd" d="M22.875 31.0126L22.875 20.875C22.875 20.3917 22.4833 20 22 20C21.5168 20 21.125 20.3917 21.125 20.875L21.125 31.0126L16.4937 26.3813C16.152 26.0396 15.598 26.0396 15.2563 26.3813C14.9146 26.723 14.9146 27.277 15.2563 27.6187L21.3808 33.7433L21.3852 33.7352L21.3875 33.7375C21.5616 33.9116 21.7789 33.9991 21.9965 34C22.2209 34.001 22.4453 33.9162 22.6169 33.7456L22.595 33.7546C22.5977 33.752 22.6004 33.7494 22.6031 33.7468C22.6062 33.7437 22.6094 33.7406 22.6125 33.7375L22.6203 33.7297L22.619 33.7434L28.7437 27.6187C29.0854 27.277 29.0854 26.723 28.7437 26.3813C28.402 26.0396 27.848 26.0396 27.5063 26.3813L22.875 31.0126ZM22.875 31.0126L22.8737 31.0263L22.86 31.04L22.875 31.0126Z" fill="#01519D"/>
<path d="M15.875 34C15.3918 34 15 34.3918 15 34.875C15 35.3582 15.3918 35.75 15.875 35.75H28.125C28.6082 35.75 29 35.3582 29 34.875C29 34.3918 28.6082 34 28.125 34H15.875Z" fill="#01519D"/>
</svg>
