<svg width="24" height="24" viewBox="0 0 24 24" fill="none" xmlns="http://www.w3.org/2000/svg">
<path fill-rule="evenodd" clip-rule="evenodd" d="M12.875 15.0126L12.875 4.875C12.875 4.39175 12.4833 4 12 4C11.5168 4 11.125 4.39175 11.125 4.875L11.125 15.0126L6.49372 10.3813C6.15201 10.0396 5.59799 10.0396 5.25628 10.3813C4.91457 10.723 4.91457 11.277 5.25628 11.6187L11.3808 17.7433L11.3852 17.7352L11.3875 17.7375C11.5616 17.9116 11.7789 17.9991 11.9965 18C12.2209 18.001 12.4453 17.9162 12.6169 17.7456L12.595 17.7546C12.5977 17.752 12.6004 17.7494 12.6031 17.7468C12.6062 17.7437 12.6094 17.7406 12.6125 17.7375L12.6203 17.7297L12.619 17.7434L18.7437 11.6187C19.0854 11.277 19.0854 10.723 18.7437 10.3813C18.402 10.0396 17.848 10.0396 17.5063 10.3813L12.875 15.0126ZM12.875 15.0126L12.8737 15.0263L12.86 15.04L12.875 15.0126Z" fill="#01519D"/>
<path d="M5.875 18C5.39175 18 5 18.3918 5 18.875C5 19.3582 5.39175 19.75 5.875 19.75H18.125C18.6082 19.75 19 19.3582 19 18.875C19 18.3918 18.6082 18 18.125 18H5.875Z" fill="#01519D"/>
</svg>
