<svg viewBox="0 0 20 17" fill="none" xmlns="http://www.w3.org/2000/svg">
<path d="M15 4L13.0625 1H7L5 4H2.78125C1.79785 4 1 4.83984 1 5.875V14.125C1 15.1602 1.79785 16 2.78125 16H17.2188C18.2021 16 19 15.1602 19 14.125V5.875C19 4.83984 18.2021 4 17.2188 4H15Z" stroke="#DCDEE1" stroke-width="2" stroke-miterlimit="10" stroke-linejoin="round"/>
<path d="M10 12C11.6569 12 13 10.6569 13 9C13 7.34315 11.6569 6 10 6C8.34315 6 7 7.34315 7 9C7 10.6569 8.34315 12 10 12Z" stroke="#DCDEE1" stroke-width="2" stroke-miterlimit="10" stroke-linejoin="round"/>
</svg>
