<svg width="180" height="40" viewBox="0 0 180 40" fill="#fff" xmlns="http://www.w3.org/2000/svg">
<path d="M167.373 2.32861H179.906C179.852 1.75896 179.775 1.19641 179.675 0.639709H167.373V2.32861Z" fill="#00BCFF"/>
<path class="icon-lines" d="M138.638 19.709V24.4155H167.264C169.552 22.9838 171.557 21.4102 173.258 19.709H138.638Z M147.835 13.7687V17.6314H175.136C176.135 16.3989 176.981 15.1083 177.68 13.7687H147.835Z M156.097 8.60729V11.6894H178.63C179.019 10.6887 179.324 9.65919 179.548 8.60729H156.097Z M161.968 4.40733V6.52977H179.883C179.958 5.83092 179.995 5.12378 179.998 4.40733H161.968Z"/>
<path class="icon-title" d="M0.302734 1.00907H5.39724V19.7815H16.9428V24.4751H0.302734V1.00907Z M31.5652 14.0825C31.2675 11.8033 29.9442 10.2612 27.8273 10.2612C25.7433 10.2612 24.3861 11.7698 23.9893 14.0825H31.5652ZM19.0607 15.591V15.5239C19.0607 10.3947 22.6663 6.17087 27.8273 6.17087C33.7485 6.17087 36.4608 10.8307 36.4608 15.9265C36.4608 16.3287 36.4286 16.7979 36.3955 17.2668H24.0552C24.5515 19.5797 26.1396 20.7866 28.3892 20.7866C30.0765 20.7866 31.301 20.2507 32.6897 18.9435L35.5683 21.525C33.9148 23.6026 31.5321 24.8769 28.3232 24.8769C22.9973 24.8769 19.0607 21.0882 19.0607 15.591Z M37.7848 6.50653H43.1119L47.0813 18.541L51.0844 6.50653H56.3117L49.3311 24.6088H44.7654L37.7848 6.50653Z M69.8743 14.0825C69.5764 11.8033 68.2533 10.2612 66.1362 10.2612C64.0519 10.2612 62.695 11.7698 62.2986 14.0825H69.8743ZM57.3692 15.591V15.5239C57.3692 10.3947 60.9754 6.17087 66.1362 6.17087C72.0577 6.17087 74.7699 10.8307 74.7699 15.9265C74.7699 16.3287 74.7378 16.7979 74.7045 17.2668H62.364C62.8605 19.5797 64.4488 20.7866 66.6982 20.7866C68.3856 20.7866 69.6096 20.2507 70.9992 18.9435L73.8774 21.525C72.2238 23.6026 69.8411 24.8769 66.6318 24.8769C61.3065 24.8769 57.3692 21.0882 57.3692 15.591Z M78.7394 0.00231934H83.7689V24.4741H78.7394V0.00231934Z M98.5887 14.4178V1.00914H103.683V14.2837C103.683 18.1052 105.569 20.0824 108.679 20.0824C111.789 20.0824 113.674 18.1729 113.674 14.4509V1.00914H118.769V14.2503C118.769 21.357 114.832 24.8438 108.612 24.8438C102.393 24.8438 98.5887 21.3238 98.5887 14.4178Z M133.093 12.8419C135.641 12.8419 137.129 11.2998 137.129 9.2888V9.22186C137.129 6.90793 135.541 5.66873 132.994 5.66873H129.057V12.8419H133.093ZM123.962 1.00913H133.423C138.949 1.00913 142.29 4.32786 142.29 9.12159V9.18769C142.29 14.6186 138.122 17.4348 132.928 17.4348H129.057V24.4752H123.962V1.00913Z"/>
<path class="icon-text" d="M0 33.4304H0.693665V35.3278L2.25042 33.4304H3.08618L1.46057 35.2936L3.18695 37.4316H2.3077L0.693665 35.3676V37.4316H0V33.4304Z M6.45808 33.3672C7.63109 33.3672 8.51632 34.1842 8.51632 35.431C8.51632 36.6318 7.63109 37.4946 6.45808 37.4946C5.28466 37.4946 4.40442 36.6777 4.40442 35.431C4.40442 34.2701 5.24578 33.3672 6.45808 33.3672ZM6.45808 36.8372C7.28686 36.8372 7.78394 36.2194 7.78394 35.431C7.78394 34.6029 7.20241 34.025 6.45808 34.025C5.70214 34.025 5.13799 34.6029 5.13799 35.431C5.13799 36.2306 5.72012 36.8372 6.45808 36.8372Z M10.4449 37.4316V33.4306C10.6647 33.4306 11.2911 33.4197 11.5679 33.4197C12.7301 33.4197 13.0959 34.0476 13.0959 34.705C13.0959 35.3852 12.5942 36.0024 11.6515 36.0024C11.5336 36.0024 11.3083 36.0024 11.1382 35.9858V37.4316H10.4449ZM11.1382 34.0874V35.3165C11.3022 35.3337 11.4719 35.3456 11.6296 35.3456C12.0414 35.3456 12.3627 35.1456 12.3627 34.6989C12.3627 34.2815 12.1093 34.0761 11.6353 34.0761C11.4938 34.0761 11.3248 34.0819 11.1382 34.0874Z M17.4777 34.0875H15.718V37.4321H15.0236V33.4307H18.1716V37.4321H17.4777V34.0875Z M22.153 33.3672C23.3264 33.3672 24.2117 34.1842 24.2117 35.431C24.2117 36.6318 23.3264 37.4946 22.153 37.4946C20.9796 37.4946 20.0994 36.6777 20.0994 35.431C20.0994 34.2701 20.9407 33.3672 22.153 33.3672ZM22.153 36.8372C22.9816 36.8372 23.4785 36.2194 23.4785 35.431C23.4785 34.6029 22.8978 34.025 22.153 34.025C21.3975 34.025 20.8329 34.6029 20.8329 35.431C20.8329 36.2306 21.4149 36.8372 22.153 36.8372Z M26.1396 37.4316V33.4306C26.3596 33.4306 26.9856 33.4197 27.2625 33.4197C28.4236 33.4197 28.7906 34.0476 28.7906 34.705C28.7906 35.3852 28.2885 36.0024 27.3464 36.0024C27.2283 36.0024 27.0031 36.0024 26.8329 35.9858V37.4316H26.1396ZM26.8329 34.0874V35.3165C26.9967 35.3337 27.1664 35.3456 27.3244 35.3456C27.7361 35.3456 28.0576 35.1456 28.0576 34.6989C28.0576 34.2815 27.804 34.0761 27.33 34.0761C27.1883 34.0761 27.0195 34.0819 26.8329 34.0874Z M31.5203 33.4191H32.1287L33.7987 37.4316H33.0597L32.6488 36.4076H30.961L30.5503 37.4316H29.8502L31.5203 33.4191ZM31.2259 35.7502H32.3826L31.8075 34.327L31.2259 35.7502Z M34.6777 33.4304H37.9325V34.0874H36.6512V37.4316H35.9578V34.0874H34.6777V33.4304Z M39.6633 37.4316V33.4306H40.357V36.2772L42.4266 33.4306H43.0367V37.4316H42.3428V34.5907L40.2722 37.4316H39.6633Z M45.2573 33.4417C45.4776 33.431 46.0023 33.4128 46.3966 33.4128C47.3393 33.4128 47.6943 33.8478 47.6943 34.4016C47.6943 34.8587 47.4684 35.1509 47.1302 35.311V35.3219C47.5201 35.4198 47.8234 35.7215 47.8234 36.2539C47.8234 37.0774 47.192 37.4537 46.3573 37.4537C45.9955 37.4537 45.4884 37.443 45.2573 37.4248V33.4417ZM45.9506 34.0874V35.0995H46.4196C46.7408 35.0995 47.0054 34.9337 47.0054 34.5673C47.0054 34.2417 46.7584 34.0708 46.3858 34.0708C46.2276 34.0708 46.0759 34.0765 45.9506 34.0874ZM45.9506 35.7114V36.7686C46.0472 36.7793 46.2108 36.7969 46.4088 36.7969C46.8763 36.7969 47.1302 36.5977 47.1302 36.2198C47.1302 35.8821 46.8763 35.7114 46.4421 35.7114H45.9506Z M52.3642 35.7225H50.5592V37.4312H49.8649V33.4296H50.5592V35.0657H52.3642V33.4296H53.0528V37.4312H52.3642V35.7225Z M55.9678 34.8018C56.1415 34.779 56.2943 34.7727 56.4072 34.7727C57.3834 34.7727 57.8514 35.2829 57.8514 36.0653C57.8514 36.9113 57.2649 37.4433 56.2549 37.4433C55.8825 37.4433 55.505 37.431 55.274 37.431V33.4306H55.9678V34.8018ZM55.9678 35.4598V36.7688C56.0914 36.7746 56.2038 36.7849 56.3392 36.7849C56.8475 36.7849 57.1178 36.5514 57.1178 36.0824C57.1178 35.654 56.8358 35.4311 56.351 35.4311C56.2442 35.4311 56.1257 35.4414 55.9678 35.4598ZM58.3643 33.4306H59.0535V37.4316H58.3643V33.4306Z M61.2733 37.4316V33.4306H61.9671V36.2772L64.0386 33.4306H64.6471V37.4316H63.9533V34.5907L61.8833 37.4316H61.2733ZM62.549 32.4584C62.5934 32.681 62.7461 32.7902 63.0281 32.7902C63.2826 32.7902 63.4568 32.7043 63.4787 32.4584H64.1286C64.1112 32.9508 63.6483 33.2757 63.0281 33.2757C62.3518 33.2757 61.9395 32.9439 61.8996 32.4584H62.549Z M71.9949 36.5059C71.7246 37.1178 71.414 37.4375 70.9231 37.4375C70.7203 37.4375 70.4883 37.3633 70.3821 37.2773L70.6242 36.684C70.731 36.7572 70.8041 36.7795 70.9175 36.7795C71.1039 36.7795 71.2281 36.6713 71.3062 36.5002L71.3629 36.3635L69.6204 33.4359H70.404L71.6965 35.6715L72.6386 33.4359H73.338L71.9949 36.5059Z M77.5782 33.4363V35.0712H75.7733V33.4363H75.0785V37.4375H75.7733V35.728H77.5782V37.4375H78.2668V33.4363H77.5782Z M83.2508 33.4363L81.1813 36.283V33.4363H80.488V37.4375H81.0965L83.1675 34.5966V37.4375H83.8608V33.4363H83.2508Z M86.0822 33.4474C86.3018 33.4355 86.8265 33.4189 87.2204 33.4189C88.1634 33.4189 88.5185 33.8528 88.5185 34.4077C88.5185 34.8643 88.2932 35.1561 87.9545 35.3161V35.327C88.3443 35.4255 88.6472 35.728 88.6472 36.26C88.6472 37.082 88.0163 37.4599 87.182 37.4599C86.8204 37.4599 86.3136 37.4486 86.0822 37.4308V33.4474ZM86.7754 34.0935V35.1052H87.2439C87.5647 35.1052 87.8308 34.9387 87.8308 34.5733C87.8308 34.2478 87.5826 34.0753 87.2101 34.0753C87.0518 34.0753 86.9 34.0818 86.7754 34.0935ZM86.7754 35.7169V36.7744C86.8714 36.785 87.0349 36.8015 87.2331 36.8015C87.7016 36.8015 87.9545 36.6022 87.9545 36.2258C87.9545 35.8881 87.7016 35.7169 87.2668 35.7169H86.7754Z M90.6892 33.4364V37.437H93.03V36.7796H91.383V35.7453H92.8042V35.0883H91.383V34.0934H92.9749V33.4364H90.6892Z M95.0602 37.4375V33.4365C95.2799 33.4365 95.9062 33.4251 96.1826 33.4251C97.3443 33.4251 97.7101 34.0534 97.7101 34.7108C97.7101 35.3911 97.2089 36.0082 96.2669 36.0082C96.1488 36.0082 95.922 36.0082 95.7539 35.9917V37.4375H95.0602ZM95.7539 34.0929V35.3223C95.9169 35.3393 96.086 35.3512 96.2439 35.3512C96.6566 35.3512 96.978 35.1514 96.978 34.7048C96.978 34.2876 96.7241 34.0825 96.2505 34.0825C96.109 34.0825 95.9399 34.087 95.7539 34.0929Z M102.618 37.049C102.37 37.3174 101.867 37.5 101.354 37.5C100.147 37.5 99.3172 36.682 99.3172 35.436C99.3172 34.2884 100.034 33.373 101.336 33.373C101.85 33.373 102.279 33.5386 102.538 33.7796L102.229 34.2993C101.991 34.1398 101.732 34.0316 101.336 34.0316C100.604 34.0316 100.052 34.5675 100.052 35.436C100.052 36.2705 100.609 36.8426 101.416 36.8426C101.748 36.8426 102.082 36.7344 102.352 36.5221L102.618 37.049Z M107.197 33.4363L105.126 36.283V33.4363H104.433V37.4375H105.042L107.113 34.5966V37.4375H107.807V33.4363H107.197Z M109.537 33.4364V34.0934H110.817V37.437H111.511V34.0934H112.79V33.4364H109.537Z M114.522 33.4364V37.437H116.863V36.7796H115.215V35.7453H116.637V35.0883H115.215V34.0934H116.807V33.4364H114.522Z M118.403 33.4364V34.0934H119.683V37.437H120.377V34.0934H121.657V33.4364H118.403Z M128.148 35.7536H126.336V37.4819H125.64V33.4354H126.336V35.0887H128.148V33.4354H128.838V37.4819H128.148V35.7536Z M132.752 34.0996H131.597L131.518 34.8631C131.286 37.2159 130.771 37.5975 129.989 37.4816L130.006 36.7765C130.312 36.8169 130.714 36.6839 130.889 34.2446L130.946 33.4349H133.443V37.4816H132.752V34.0996Z M135.019 33.4349H135.72L137.073 35.3252L138.364 33.4349H139.021V37.4814H138.329V34.5562L137.079 36.3545H136.977L135.715 34.5738V37.4814H135.019V33.4349Z M140.597 33.4349H141.293V35.3543L142.855 33.4349H143.693L142.063 35.3204L143.796 37.4814H142.912L141.293 35.3948V37.4814H140.597V33.4349Z"/>
</svg>
