<svg width="157" height="32" viewBox="0 0 157 32" fill="none" xmlns="http://www.w3.org/2000/svg">
<path d="M120.416 16.8187V20.835H145.28C147.267 19.6133 149.008 18.2704 150.486 16.8187H120.416Z" fill="#01519D"/>
<path d="M128.404 11.7497V15.0459H152.118C152.985 13.9942 153.72 12.8929 154.327 11.7497H128.404Z" fill="#01519D"/>
<path d="M135.582 7.3445V9.97461H155.153C155.491 9.12062 155.757 8.24213 155.951 7.3445H135.582Z" fill="#01519D"/>
<path d="M140.682 3.76111V5.57226H156.242C156.307 4.97591 156.339 4.37248 156.342 3.76111H140.682Z" fill="#01519D"/>
<path d="M145.375 1.98728H156.261C156.214 1.50118 156.147 1.02114 156.06 0.546087H145.375V1.98728Z" fill="#00BCFF"/>
<path d="M0.263672 0.86138H4.68862V16.8805H14.7167V20.8857H0.263672V0.86138Z" fill="#00BCFF"/>
<path d="M27.4158 12.0173C27.1572 10.0724 26.0078 8.75645 24.1691 8.75645C22.359 8.75645 21.1802 10.0437 20.8356 12.0173H27.4158ZM16.5547 13.3045V13.2472C16.5547 8.87033 19.6864 5.266 24.1691 5.266C29.3122 5.266 31.6679 9.24236 31.6679 13.5908C31.6679 13.934 31.64 14.3344 31.6112 14.7345H20.8928C21.3239 16.7082 22.7032 17.738 24.6572 17.738C26.1227 17.738 27.1863 17.2807 28.3925 16.1653L30.8928 18.3682C29.4565 20.141 27.387 21.2285 24.5998 21.2285C19.974 21.2285 16.5547 17.9955 16.5547 13.3045Z" fill="#00BCFF"/>
<path d="M32.8184 5.55269H37.4453L40.893 15.8221L44.37 5.55269H48.9103L42.8471 21H38.8815L32.8184 5.55269Z" fill="#00BCFF"/>
<path d="M60.6916 12.0173C60.4329 10.0724 59.2837 8.75645 57.4449 8.75645C55.6345 8.75645 54.4559 10.0437 54.1116 12.0173H60.6916ZM49.8301 13.3045V13.2472C49.8301 8.87033 52.9623 5.266 57.4449 5.266C62.5881 5.266 64.9439 9.24236 64.9439 13.5908C64.9439 13.934 64.9159 14.3344 64.8871 14.7345H54.1684C54.5997 16.7082 55.9792 17.738 57.933 17.738C59.3986 17.738 60.4618 17.2807 61.6687 16.1653L64.1687 18.3682C62.7323 20.141 60.6628 21.2285 57.8753 21.2285C53.2499 21.2285 49.8301 17.9955 49.8301 13.3045Z" fill="#00BCFF"/>
<path d="M68.3906 0.00213623H72.7591V20.8847H68.3906V0.00213623Z" fill="#00BCFF"/>
<path d="M85.6309 12.3033V0.861266H90.0557V12.1889C90.0557 15.4499 91.694 17.1371 94.3949 17.1371C97.0959 17.1371 98.7337 15.5077 98.7337 12.3316V0.861266H103.159V12.1604C103.159 18.2248 99.7396 21.2002 94.3368 21.2002C88.9353 21.2002 85.6309 18.1965 85.6309 12.3033Z" fill="#00BCFF"/>
<path d="M115.601 10.9587C117.814 10.9587 119.107 9.64278 119.107 7.92669V7.86957C119.107 5.89502 117.727 4.83757 115.515 4.83757H112.095V10.9587H115.601ZM107.67 0.86138H115.888C120.687 0.86138 123.589 3.69336 123.589 7.78401V7.84042C123.589 12.4748 119.969 14.878 115.457 14.878H112.095V20.8857H107.67V0.86138Z" fill="#00BCFF"/>
<path d="M0 28.527H0.602497V30.1461L1.95465 28.527H2.68056L1.26861 30.117L2.76809 31.9414H2.0044L0.602497 30.1801V31.9414H0V28.527Z" fill="#202429"/>
<path d="M5.60992 28.4731C6.62876 28.4731 7.39765 29.1702 7.39765 30.2342C7.39765 31.2588 6.62876 31.9951 5.60992 31.9951C4.59072 31.9951 3.82617 31.298 3.82617 30.2342C3.82617 29.2435 4.55696 28.4731 5.60992 28.4731ZM5.60992 31.4342C6.32978 31.4342 6.76153 30.907 6.76153 30.2342C6.76153 29.5276 6.25643 29.0344 5.60992 29.0344C4.95334 29.0344 4.46333 29.5276 4.46333 30.2342C4.46333 30.9165 4.96896 31.4342 5.60992 31.4342Z" fill="#202429"/>
<path d="M9.07227 31.9414V28.5272C9.26311 28.5272 9.80721 28.5179 10.0476 28.5179C11.0571 28.5179 11.3748 29.0537 11.3748 29.6147C11.3748 30.1951 10.939 30.7218 10.1202 30.7218C10.0178 30.7218 9.82212 30.7218 9.6744 30.7076V31.9414H9.07227ZM9.6744 29.0877V30.1365C9.81688 30.1511 9.96425 30.1613 10.1012 30.1613C10.4589 30.1613 10.738 29.9907 10.738 29.6095C10.738 29.2533 10.5178 29.078 10.1062 29.078C9.98328 29.078 9.8365 29.083 9.6744 29.0877Z" fill="#202429"/>
<path d="M15.1804 29.0883H13.652V31.9424H13.0488V28.5278H15.7831V31.9424H15.1804V29.0883Z" fill="#202429"/>
<path d="M19.2408 28.4731C20.26 28.4731 21.0289 29.1702 21.0289 30.2342C21.0289 31.2588 20.26 31.9951 19.2408 31.9951C18.2216 31.9951 17.457 31.298 17.457 30.2342C17.457 29.2435 18.1878 28.4731 19.2408 28.4731ZM19.2408 31.4342C19.9605 31.4342 20.392 30.907 20.392 30.2342C20.392 29.5276 19.8876 29.0344 19.2408 29.0344C18.5845 29.0344 18.0942 29.5276 18.0942 30.2342C18.0942 30.9165 18.5996 31.4342 19.2408 31.4342Z" fill="#202429"/>
<path d="M22.7031 31.9414V28.5272C22.8941 28.5272 23.4379 28.5179 23.6784 28.5179C24.6869 28.5179 25.0057 29.0537 25.0057 29.6147C25.0057 30.1951 24.5695 30.7218 23.7513 30.7218C23.6487 30.7218 23.4531 30.7218 23.3053 30.7076V31.9414H22.7031ZM23.3053 29.0877V30.1365C23.4476 30.1511 23.5949 30.1613 23.7322 30.1613C24.0898 30.1613 24.369 29.9907 24.369 29.6095C24.369 29.2533 24.1487 29.078 23.7371 29.078C23.614 29.078 23.4674 29.083 23.3053 29.0877Z" fill="#202429"/>
<path d="M27.3783 28.5174H27.9068L29.3573 31.9414H28.7154L28.3585 31.0676H26.8925L26.5358 31.9414H25.9277L27.3783 28.5174ZM27.1226 30.5066H28.1273L27.6277 29.2922L27.1226 30.5066Z" fill="#202429"/>
<path d="M30.1191 28.527H32.9462V29.0877H31.8332V31.9414H31.231V29.0877H30.1191V28.527Z" fill="#202429"/>
<path d="M34.4512 31.9414V28.5272H35.0537V30.9563L36.8513 28.5272H37.3811V31.9414H36.7785V29.5172L34.98 31.9414H34.4512Z" fill="#202429"/>
<path d="M39.3086 28.5374C39.4999 28.5283 39.9556 28.5128 40.2981 28.5128C41.117 28.5128 41.4253 28.8839 41.4253 29.3566C41.4253 29.7465 41.2291 29.9959 40.9353 30.1325V30.1419C41.274 30.2254 41.5374 30.4828 41.5374 30.9372C41.5374 31.6398 40.989 31.961 40.264 31.961C39.9497 31.961 39.5093 31.9518 39.3086 31.9363V28.5374ZM39.9107 29.0884V29.952H40.3181C40.5971 29.952 40.8269 29.8106 40.8269 29.4979C40.8269 29.2201 40.6124 29.0743 40.2888 29.0743C40.1513 29.0743 40.0196 29.0791 39.9107 29.0884ZM39.9107 30.4742V31.3763C39.9946 31.3855 40.1368 31.4005 40.3087 31.4005C40.7148 31.4005 40.9353 31.2305 40.9353 30.908C40.9353 30.6198 40.7148 30.4742 40.3376 30.4742H39.9107Z" fill="#202429"/>
<path d="M45.4813 30.4833H43.9136V31.9414H43.3105V28.5267H43.9136V29.9229H45.4813V28.5267H46.0795V31.9414H45.4813V30.4833Z" fill="#202429"/>
<path d="M48.6124 29.6981C48.7632 29.6786 48.8959 29.6732 48.994 29.6732C49.8419 29.6732 50.2484 30.1086 50.2484 30.7762C50.2484 31.4982 49.739 31.9522 48.8617 31.9522C48.5382 31.9522 48.2103 31.9416 48.0098 31.9416V28.528H48.6124V29.6981ZM48.6124 30.2596V31.3765C48.7197 31.3815 48.8174 31.3903 48.9349 31.3903C49.3764 31.3903 49.6112 31.191 49.6112 30.7909C49.6112 30.4252 49.3662 30.2351 48.9451 30.2351C48.8524 30.2351 48.7495 30.2439 48.6124 30.2596ZM50.6939 28.528H51.2925V31.9422H50.6939V28.528Z" fill="#202429"/>
<path d="M53.2207 31.9414V28.5272H53.8233V30.9563L55.6226 28.5272H56.1511V31.9414H55.5485V29.5172L53.7505 31.9414H53.2207ZM54.3287 27.6976C54.3673 27.8876 54.5 27.9807 54.7449 27.9807C54.9659 27.9807 55.1172 27.9074 55.1363 27.6976H55.7007C55.6856 28.1177 55.2836 28.395 54.7449 28.395C54.1574 28.395 53.7993 28.1119 53.7647 27.6976H54.3287Z" fill="#202429"/>
<path d="M62.5331 31.1513C62.2984 31.6735 62.0286 31.9463 61.6022 31.9463C61.426 31.9463 61.2246 31.883 61.1323 31.8096L61.3426 31.3034C61.4354 31.3658 61.4988 31.3848 61.5973 31.3848C61.7593 31.3848 61.8671 31.2925 61.935 31.1465L61.9843 31.0299L60.4707 28.5316H61.1514L62.274 30.4394L63.0922 28.5316H63.6997L62.5331 31.1513Z" fill="#202429"/>
<path d="M67.3821 28.5329V29.928H65.8144V28.5329H65.2109V31.9473H65.8144V30.4885H67.3821V31.9473H67.9802V28.5329H67.3821Z" fill="#202429"/>
<path d="M72.3098 28.5329L70.5123 30.9622V28.5329H69.9102V31.9473H70.4386L72.2375 29.523V31.9473H72.8396V28.5329H72.3098Z" fill="#202429"/>
<path d="M74.7676 28.5418C74.9584 28.5316 75.4141 28.5175 75.7562 28.5175C76.5753 28.5175 76.8837 28.8878 76.8837 29.3613C76.8837 29.7509 76.688 29.9999 76.3938 30.1364V30.1457C76.7324 30.2297 76.9955 30.4879 76.9955 30.9419C76.9955 31.6433 76.4475 31.9658 75.7229 31.9658C75.4088 31.9658 74.9686 31.9562 74.7676 31.941V28.5418ZM75.3697 29.0931V29.9564H75.7766C76.0553 29.9564 76.2865 29.8144 76.2865 29.5026C76.2865 29.2248 76.0708 29.0776 75.7473 29.0776C75.6098 29.0776 75.478 29.0831 75.3697 29.0931ZM75.3697 30.4784V31.3809C75.4531 31.3898 75.5951 31.404 75.7673 31.404C76.1742 31.404 76.3938 31.2339 76.3938 30.9127C76.3938 30.6246 76.1742 30.4784 75.7966 30.4784H75.3697Z" fill="#202429"/>
<path d="M78.7695 28.5324V31.9463H80.8027V31.3853H79.3721V30.5027H80.6066V29.9421H79.3721V29.0931H80.7548V28.5324H78.7695Z" fill="#202429"/>
<path d="M82.5664 31.9463V28.5321C82.7572 28.5321 83.3012 28.5224 83.5413 28.5224C84.5503 28.5224 84.868 29.0586 84.868 29.6196C84.868 30.2 84.4327 30.7267 83.6145 30.7267C83.512 30.7267 83.315 30.7267 83.169 30.7125V31.9463H82.5664ZM83.169 29.0922V30.1414C83.3105 30.1559 83.4574 30.166 83.5945 30.166C83.9531 30.166 84.2322 29.9956 84.2322 29.6144C84.2322 29.2584 84.0116 29.0834 83.6003 29.0834C83.4774 29.0834 83.3305 29.0872 83.169 29.0922Z" fill="#202429"/>
<path d="M89.1306 31.6152C88.9149 31.8442 88.4788 32 88.0328 32C86.9847 32 86.2637 31.302 86.2637 30.2387C86.2637 29.2595 86.8862 28.4783 88.0173 28.4783C88.4632 28.4783 88.8364 28.6196 89.0614 28.8253L88.7929 29.2688C88.5861 29.1326 88.3612 29.0403 88.0173 29.0403C87.3814 29.0403 86.9017 29.4976 86.9017 30.2387C86.9017 30.9509 87.3859 31.439 88.0869 31.439C88.3754 31.439 88.6651 31.3467 88.8994 31.1655L89.1306 31.6152Z" fill="#202429"/>
<path d="M93.108 28.5329L91.3096 30.9622V28.5329H90.707V31.9473H91.2364L93.0353 29.523V31.9473H93.6379V28.5329H93.108Z" fill="#202429"/>
<path d="M95.1406 28.5324V29.0931H96.2522V31.9463H96.8552V29.0931H97.9663V28.5324H95.1406Z" fill="#202429"/>
<path d="M99.4708 28.5325V31.9464H101.504V31.3854H100.073V30.5027H101.308V29.9421H100.073V29.0931H101.455V28.5325H99.4708Z" fill="#202429"/>
<path d="M102.842 28.5324V29.0931H103.953V31.9463H104.557V29.0931H105.668V28.5324H102.842Z" fill="#202429"/>
<path d="M111.305 30.5095H109.731V31.9844H109.127V28.5314H109.731V29.9422H111.305V28.5314H111.904V31.9844H111.305V30.5095Z" fill="#202429"/>
<path d="M115.304 29.0983H114.301L114.232 29.7499C114.03 31.7576 113.583 32.0832 112.904 31.9843L112.919 31.3826C113.185 31.4171 113.534 31.3036 113.686 29.2221L113.735 28.5311H115.904V31.9843H115.304V29.0983Z" fill="#202429"/>
<path d="M117.273 28.5314H117.883L119.057 30.1444L120.179 28.5314H120.75V31.9844H120.148V29.4882L119.063 31.0227H118.975L117.878 29.5032V31.9844H117.273V28.5314Z" fill="#202429"/>
<path d="M122.119 28.5314H122.724V30.1693L124.081 28.5314H124.809L123.393 30.1403L124.898 31.9844H124.13L122.724 30.2038V31.9844H122.119V28.5314Z" fill="#202429"/>
</svg>
