<svg width="56" height="56" viewBox="0 0 56 56" fill="currentColor" xmlns="http://www.w3.org/2000/svg">
<path d="M8 15.5C7.45228 15.5 7 15.9523 7 16.5V44.5C7 45.0477 7.45228 45.5 8 45.5H48C48.5477 45.5 49 45.0477 49 44.5V16.5C49 15.9523 48.5477 15.5 48 15.5H8ZM5 16.5C5 14.8477 6.34772 13.5 8 13.5H48C49.6523 13.5 51 14.8477 51 16.5V44.5C51 46.1523 49.6523 47.5 48 47.5H8C6.34772 47.5 5 46.1523 5 44.5V16.5Z"/>
<path d="M21 10.5C21 9.39772 21.8977 8.5 23 8.5H33C34.1023 8.5 35 9.39772 35 10.5V14.5H33V10.5H23V14.5H21V10.5Z"/>
<path d="M24 28.5H32V35.5C32 36.6023 31.1023 37.5 30 37.5H26C24.8977 37.5 24 36.6023 24 35.5V28.5ZM26 30.5V35.5H30V30.5H26Z"/>
<path d="M7 28.5C7 30.7077 8.79228 32.5 11 32.5H25V34.5H11C7.68772 34.5 5 31.8123 5 28.5H7Z"/>
<path d="M45 32.5C47.2077 32.5 49 30.7077 49 28.5H51C51 31.8123 48.3123 34.5 45 34.5H31V32.5H45Z"/>
</svg>
