<svg width="56" height="56" viewBox="0 0 56 56" fill="currentColor" xmlns="http://www.w3.org/2000/svg">
<path d="M19.0634 8.35627C10.1637 10.2383 4.4748 18.9785 6.35679 27.8782C8.23878 36.7778 16.979 42.4668 25.8787 40.5848C34.7783 38.7028 40.4673 29.9625 38.5853 21.0629C36.7033 12.1632 27.963 6.47428 19.0634 8.35627ZM4.39999 28.292C2.28947 18.3116 8.66923 8.51 18.6496 6.39947C28.63 4.28895 38.4316 10.6687 40.5421 20.6491C42.6526 30.6294 36.2728 40.431 26.2925 42.5416C16.3121 44.6521 6.51052 38.2723 4.39999 28.292Z"/>
<path d="M31.9929 39.3471L24.9729 32.3271L26.3872 30.9129L33.4072 37.9329L31.9929 39.3471Z"/>
<path d="M35.5529 35.9071L27.5929 27.9471L29.0072 26.5329L36.9672 34.4929L35.5529 35.9071Z"/>
<path d="M38.0724 31.4366L31.5924 24.9466L33.0077 23.5335L39.4877 30.0235L38.0724 31.4366Z"/>
<path d="M49.93 35.9314C49.9207 30.7083 46.5807 26.2765 41.927 24.6329L42.5931 22.7471C48.0193 24.6635 51.9193 29.8315 51.93 35.9282C51.9408 43.6604 45.6841 49.9288 37.9624 49.94C33.2871 49.9508 29.1504 47.6655 26.61 44.1564L28.2301 42.9836C30.4097 45.9945 33.953 47.9492 37.9577 47.94C44.5755 47.9308 49.9391 42.5588 49.93 35.9314Z"/>
<path d="M37.9187 21.95L37.92 21.95C38.64 21.95 39.3509 22.0038 40.0521 22.1116L39.748 24.0884C39.1495 23.9963 38.5406 23.95 37.9208 23.95C31.3032 23.9596 25.9408 29.3313 25.95 35.9586L25.9501 35.96C25.95 37.8083 26.3656 39.5508 27.1118 41.1078L25.3083 41.9722C24.4346 40.1494 23.9501 38.1122 23.9501 35.9607C23.9397 28.2286 30.1967 21.9608 37.9187 21.95Z"/>
</svg>
