<svg width="56" height="56" viewBox="0 0 56 56" fill="currentColor" xmlns="http://www.w3.org/2000/svg">
<path d="M23 20.0668V22H33V20.0662C32.9833 20.0371 32.9259 19.9395 32.7527 19.7746C32.488 19.5226 32.0755 19.2338 31.5493 18.9588C30.4894 18.4049 29.1486 18 28 18C26.8568 18 25.5159 18.4047 24.454 18.959C23.927 19.2341 23.5135 19.5231 23.2479 19.7754C23.0746 19.94 23.0168 20.0375 23 20.0668ZM23.5285 17.186C24.7941 16.5253 26.4532 16 28 16C29.5514 16 31.2106 16.5251 32.4757 17.1862C33.1119 17.5187 33.6933 17.9086 34.1317 18.326C34.5202 18.6959 35 19.2785 35 20V22C35 23.1023 34.1023 24 33 24H23C21.8977 24 21 23.1023 21 22V20C21 19.2774 21.4818 18.6945 21.8705 18.3253C22.3097 17.9081 22.8918 17.5184 23.5285 17.186Z"/>
<path d="M23 11.29C23 8.46749 24.953 6 28 6C31.0586 6 33 8.46925 33 11.29V12.71C33 15.5325 31.047 18 28 18C24.9428 18 23 15.5323 23 12.72V11.29ZM28 8C26.247 8 25 9.37251 25 11.29V12.72C25 14.6277 26.2372 16 28 16C29.753 16 31 14.6275 31 12.71V11.29C31 9.37075 29.7614 8 28 8Z"/>
<path d="M9 46.0662V48H19V46.0662C18.9833 46.0371 18.9259 45.9395 18.7527 45.7746C18.488 45.5226 18.0756 45.2338 17.5493 44.9588C16.4894 44.4049 15.1486 44 14 44C12.8514 44 11.5106 44.4049 10.4507 44.9588C9.92445 45.2338 9.51201 45.5226 9.24732 45.7746C9.07412 45.9395 9.01666 46.037 9 46.0662ZM9.52435 43.1862C10.7894 42.5251 12.4486 42 14 42C15.5514 42 17.2106 42.5251 18.4757 43.1862C19.1119 43.5187 19.6933 43.9086 20.1317 44.326C20.5202 44.6959 21 45.2785 21 46V48C21 49.1023 20.1023 50 19 50H9C7.89772 50 7 49.1023 7 48V46C7 45.2785 7.47982 44.6959 7.8683 44.326C8.30674 43.9086 8.88805 43.5187 9.52435 43.1862Z"/>
<path d="M9 37.29C9 34.4675 10.953 32 14 32C17.0572 32 19 34.4677 19 37.28V38.71C19 41.5325 17.047 44 14 44C10.9428 44 9 41.5323 9 38.72V37.29ZM14 34C12.247 34 11 35.3725 11 37.29V38.72C11 40.6277 12.2372 42 14 42C15.753 42 17 40.6275 17 38.71V37.28C17 35.3723 15.7628 34 14 34Z"/>
<path d="M37 46.0668V48H47V46.0662C46.9833 46.0371 46.9259 45.9395 46.7527 45.7746C46.488 45.5226 46.0755 45.2338 45.5493 44.9588C44.4894 44.4049 43.1486 44 42 44C40.8568 44 39.5159 44.4047 38.454 44.959C37.927 45.2341 37.5135 45.5231 37.2479 45.7754C37.0746 45.94 37.0168 46.0375 37 46.0668ZM37.5285 43.186C38.7941 42.5253 40.4532 42 42 42C43.5514 42 45.2106 42.5251 46.4757 43.1862C47.1119 43.5187 47.6933 43.9086 48.1317 44.326C48.5202 44.6959 49 45.2785 49 46V48C49 49.1023 48.1023 50 47 50H37C35.8977 50 35 49.1023 35 48V46C35 45.2774 35.4818 44.6945 35.8705 44.3253C36.3097 43.9081 36.8918 43.5184 37.5285 43.186Z"/>
<path d="M37 37.28C37 34.4575 38.953 31.99 42 31.99C45.0586 31.99 47 34.4593 47 37.28V38.71C47 41.5325 45.047 44 42 44C38.953 44 37 41.5325 37 38.71V37.28ZM42 33.99C40.247 33.99 39 35.3625 39 37.28V38.71C39 40.6275 40.247 42 42 42C43.753 42 45 40.6275 45 38.71V37.28C45 35.3607 43.7614 33.99 42 33.99Z"/>
<path d="M27 33V26H29V33H27Z"/>
<path d="M28.5547 32.1679L34.5547 36.1679L33.4453 37.8321L27.4453 33.8321L28.5547 32.1679Z"/>
<path d="M28.5547 33.8321L22.5547 37.8321L21.4453 36.1679L27.4453 32.1679L28.5547 33.8321Z"/>
</svg>
