<svg width="56" height="56" viewBox="0 0 56 56" fill="currentColor" xmlns="http://www.w3.org/2000/svg">
<path d="M18.1733 3.25H49V52.75H7V13.4076L18.1733 3.25ZM18.9465 5.25L9 14.2924V50.75H47V5.25H18.9465Z"/>
<path d="M20 14.25V4.25H22V16.25H13V14.25H20Z"/>
<path d="M29.875 33.7626L29.875 23.625C29.875 23.1417 29.4833 22.75 29 22.75C28.5168 22.75 28.125 23.1417 28.125 23.625L28.125 33.7626L23.4937 29.1313C23.152 28.7896 22.598 28.7896 22.2563 29.1313C21.9146 29.473 21.9146 30.027 22.2563 30.3687L28.3808 36.4933L28.3852 36.4852L28.3875 36.4875C28.5616 36.6616 28.7789 36.7491 28.9965 36.75C29.2209 36.751 29.4453 36.6662 29.6169 36.4956L29.595 36.5046C29.5977 36.502 29.6004 36.4994 29.6031 36.4968C29.6062 36.4937 29.6094 36.4906 29.6125 36.4875L29.6203 36.4797L29.619 36.4934L35.7437 30.3687C36.0854 30.027 36.0854 29.473 35.7437 29.1313C35.402 28.7896 34.848 28.7896 34.5063 29.1313L29.875 33.7626ZM29.875 33.7626L29.8737 33.7763L29.86 33.79L29.875 33.7626Z M22.875 36.75C22.3918 36.75 22 37.1418 22 37.625C22 38.1082 22.3918 38.5 22.875 38.5H35.125C35.6082 38.5 36 38.1082 36 37.625C36 37.1418 35.6082 36.75 35.125 36.75H22.875Z"/>
</svg>
