<svg width="16" height="16" viewBox="0 0 16 16" fill="currentColor" xmlns="http://www.w3.org/2000/svg">
<path d="M8 0C3.5888 0 0 3.5888 0 8C0 12.4112 3.5888 16 8 16C12.4112 16 16 12.4112 16 8C16 3.5888 12.4112 0 8 0ZM8 14.5455C4.39079 14.5455 1.45455 11.6092 1.45455 8C1.45455 4.39084 4.39079 1.45455 8 1.45455C11.6092 1.45455 14.5455 4.39084 14.5455 8C14.5455 11.6092 11.6092 14.5455 8 14.5455Z M10.9999 5.17158L6.88572 9.28567L5.00014 7.40004C4.71617 7.11607 4.25566 7.11602 3.97164 7.4C3.68761 7.68402 3.68761 8.14448 3.97164 8.42851L6.37144 10.8284C6.50783 10.9648 6.6928 11.0415 6.88567 11.0415C6.88562 11.0415 6.88572 11.0415 6.88567 11.0415C7.07855 11.0415 7.26356 10.9648 7.39995 10.8285L12.0284 6.20014C12.3124 5.91611 12.3124 5.45565 12.0284 5.17163C11.7443 4.8876 11.2839 4.88756 10.9999 5.17158Z"/>
</svg>
