<svg width="16" height="16" viewBox="0 0 16 16" fill="currentColor" xmlns="http://www.w3.org/2000/svg">
<path d="M8 3.75C8.41421 3.75 8.75 4.08579 8.75 4.5V7.75H10.5C10.9142 7.75 11.25 8.08579 11.25 8.5C11.25 8.91421 10.9142 9.25 10.5 9.25H7.25V4.5C7.25 4.08579 7.58579 3.75 8 3.75Z"/>
<path fill-rule="evenodd" clip-rule="evenodd" d="M8 14.5C11.5899 14.5 14.5 11.5899 14.5 8C14.5 4.41015 11.5899 1.5 8 1.5C4.41015 1.5 1.5 4.41015 1.5 8C1.5 11.5899 4.41015 14.5 8 14.5ZM8 16C12.4183 16 16 12.4183 16 8C16 3.58172 12.4183 0 8 0C3.58172 0 0 3.58172 0 8C0 12.4183 3.58172 16 8 16Z"/>
</svg>
