<svg width="33" height="33" viewBox="0 0 33 33" fill="#F22424" xmlns="http://www.w3.org/2000/svg">
<path d="M16.502 30.1754C24.2339 30.1754 30.502 23.9074 30.502 16.1754C30.502 8.44343 24.2339 2.17542 16.502 2.17542C8.76997 2.17542 2.50195 8.44343 2.50195 16.1754C2.50195 23.9074 8.76997 30.1754 16.502 30.1754ZM32.502 16.1754C32.502 25.012 25.3385 32.1754 16.502 32.1754C7.6654 32.1754 0.501953 25.012 0.501953 16.1754C0.501953 7.33886 7.6654 0.175415 16.502 0.175415C25.3385 0.175415 32.502 7.33886 32.502 16.1754Z"/>
<path d="M16.5021 23.7544C20.6879 23.7544 24.0811 20.3612 24.0811 16.1754C24.0811 11.9897 20.6879 8.59648 16.5021 8.59648C12.3164 8.59648 8.92318 11.9897 8.92318 16.1754C8.92318 20.3612 12.3164 23.7544 16.5021 23.7544Z"/>
</svg>
