<svg width="33" height="33" viewBox="0 0 33 33" fill="none" xmlns="http://www.w3.org/2000/svg">
<path d="M32.1299 16.928C32.1299 25.7645 24.9664 32.928 16.1299 32.928C7.29333 32.928 0.129883 25.7645 0.129883 16.928C0.129883 8.09142 7.29333 0.927979 16.1299 0.927979C24.9664 0.927979 32.1299 8.09142 32.1299 16.928Z" fill="#01519D"/>
<path fill-rule="evenodd" clip-rule="evenodd" d="M16.1299 30.928C23.8619 30.928 30.1299 24.66 30.1299 16.928C30.1299 9.19599 23.8619 2.92798 16.1299 2.92798C8.3979 2.92798 2.12988 9.19599 2.12988 16.928C2.12988 24.66 8.3979 30.928 16.1299 30.928ZM16.1299 32.928C24.9664 32.928 32.1299 25.7645 32.1299 16.928C32.1299 8.09142 24.9664 0.927979 16.1299 0.927979C7.29333 0.927979 0.129883 8.09142 0.129883 16.928C0.129883 25.7645 7.29333 32.928 16.1299 32.928Z" fill="#01519D"/>
<path d="M16.1924 13.303C17.0553 13.303 17.7549 12.4635 17.7549 11.428C17.7549 10.3924 17.0553 9.55298 16.1924 9.55298C15.3294 9.55298 14.6299 10.3924 14.6299 11.428C14.6299 12.4635 15.3294 13.303 16.1924 13.303Z" fill="white"/>
<path d="M18.3799 21.202C17.0791 21.961 16.2839 21.3909 16.7114 19.8898C16.7114 19.8898 17.3421 17.8551 17.5453 17.1753C18.4228 14.2496 15.7706 14.731 12.7549 17.3676C14.2089 16.5402 14.7602 17.1889 14.3376 18.5031C14.1253 19.1633 13.5466 21.1593 13.5466 21.1593C12.9475 23.5278 14.8298 24.452 18.3799 21.202Z" fill="white"/>
</svg>
